<mxfile host="Electron" modified="2023-12-11T08:53:04.189Z" agent="Mozilla/5.0 (Windows NT 10.0; Win64; x64) AppleWebKit/537.36 (KHTML, like Gecko) draw.io/22.0.3 Chrome/114.0.5735.289 Electron/25.8.4 Safari/537.36" etag="mHmlf4E-RiT5th171ngq" version="22.0.3" type="device">
  <diagram name="Page-1" id="BoSmgqvNc1_bul6-Wwdc">
    <mxGraphModel dx="1668" dy="965" grid="1" gridSize="10" guides="1" tooltips="1" connect="1" arrows="1" fold="1" page="1" pageScale="1" pageWidth="5000" pageHeight="5000" math="0" shadow="0">
      <root>
        <mxCell id="0" />
        <mxCell id="1" parent="0" />
        <mxCell id="vwh4TKMZ7woZxt2ZBBR1-9" style="edgeStyle=elbowEdgeStyle;rounded=0;orthogonalLoop=1;jettySize=auto;html=1;fontFamily=Helvetica;fontSize=12;fontColor=default;endArrow=none;endFill=0;strokeWidth=2;elbow=vertical;fontStyle=1" parent="1" source="vwh4TKMZ7woZxt2ZBBR1-2" target="vwh4TKMZ7woZxt2ZBBR1-3" edge="1">
          <mxGeometry relative="1" as="geometry" />
        </mxCell>
        <mxCell id="vwh4TKMZ7woZxt2ZBBR1-13" style="edgeStyle=elbowEdgeStyle;shape=connector;rounded=0;orthogonalLoop=1;jettySize=auto;html=1;labelBackgroundColor=default;strokeColor=default;strokeWidth=2;align=center;verticalAlign=middle;fontFamily=Helvetica;fontSize=12;fontColor=default;endArrow=none;endFill=0;elbow=vertical;fontStyle=1" parent="1" source="vwh4TKMZ7woZxt2ZBBR1-2" target="vwh4TKMZ7woZxt2ZBBR1-4" edge="1">
          <mxGeometry relative="1" as="geometry" />
        </mxCell>
        <mxCell id="vwh4TKMZ7woZxt2ZBBR1-14" style="edgeStyle=elbowEdgeStyle;shape=connector;rounded=0;orthogonalLoop=1;jettySize=auto;html=1;labelBackgroundColor=default;strokeColor=default;strokeWidth=2;align=center;verticalAlign=middle;fontFamily=Helvetica;fontSize=12;fontColor=default;endArrow=none;endFill=0;elbow=vertical;fontStyle=1" parent="1" source="vwh4TKMZ7woZxt2ZBBR1-2" target="vwh4TKMZ7woZxt2ZBBR1-5" edge="1">
          <mxGeometry relative="1" as="geometry" />
        </mxCell>
        <mxCell id="vwh4TKMZ7woZxt2ZBBR1-15" style="edgeStyle=elbowEdgeStyle;shape=connector;rounded=0;orthogonalLoop=1;jettySize=auto;html=1;labelBackgroundColor=default;strokeColor=default;strokeWidth=2;align=center;verticalAlign=middle;fontFamily=Helvetica;fontSize=12;fontColor=default;endArrow=none;endFill=0;elbow=vertical;fontStyle=1" parent="1" source="vwh4TKMZ7woZxt2ZBBR1-2" target="vwh4TKMZ7woZxt2ZBBR1-6" edge="1">
          <mxGeometry relative="1" as="geometry" />
        </mxCell>
        <mxCell id="vwh4TKMZ7woZxt2ZBBR1-2" value="&lt;font style=&quot;font-size: 16px;&quot;&gt;&lt;span&gt;user&lt;/span&gt;&lt;/font&gt;" style="rounded=1;whiteSpace=wrap;html=1;fillColor=#dae8fc;strokeColor=#6c8ebf;strokeWidth=2;fontStyle=1" parent="1" vertex="1">
          <mxGeometry x="2725" y="1140" width="120" height="60" as="geometry" />
        </mxCell>
        <mxCell id="vwh4TKMZ7woZxt2ZBBR1-3" value="&lt;font style=&quot;font-size: 16px;&quot;&gt;&lt;u&gt;user_id&lt;/u&gt;&lt;/font&gt;" style="rounded=1;whiteSpace=wrap;html=1;arcSize=60;strokeColor=#82b366;strokeWidth=2;align=center;verticalAlign=middle;fontFamily=Helvetica;fontSize=12;fillColor=#d5e8d4;fontStyle=1" parent="1" vertex="1">
          <mxGeometry x="2515" y="980" width="120" height="60" as="geometry" />
        </mxCell>
        <mxCell id="vwh4TKMZ7woZxt2ZBBR1-4" value="&lt;font style=&quot;font-size: 16px;&quot;&gt;name&lt;/font&gt;" style="rounded=1;whiteSpace=wrap;html=1;arcSize=60;strokeColor=#82b366;strokeWidth=2;align=center;verticalAlign=middle;fontFamily=Helvetica;fontSize=12;fillColor=#d5e8d4;fontStyle=1" parent="1" vertex="1">
          <mxGeometry x="2655" y="980" width="120" height="60" as="geometry" />
        </mxCell>
        <mxCell id="vwh4TKMZ7woZxt2ZBBR1-5" value="&lt;font style=&quot;font-size: 16px;&quot;&gt;email&lt;/font&gt;" style="rounded=1;whiteSpace=wrap;html=1;arcSize=60;strokeColor=#82b366;strokeWidth=2;align=center;verticalAlign=middle;fontFamily=Helvetica;fontSize=12;fillColor=#d5e8d4;fontStyle=1" parent="1" vertex="1">
          <mxGeometry x="2795" y="980" width="120" height="60" as="geometry" />
        </mxCell>
        <mxCell id="vwh4TKMZ7woZxt2ZBBR1-6" value="&lt;font style=&quot;font-size: 16px;&quot;&gt;password&lt;/font&gt;" style="rounded=1;whiteSpace=wrap;html=1;arcSize=60;strokeColor=#82b366;strokeWidth=2;align=center;verticalAlign=middle;fontFamily=Helvetica;fontSize=12;fillColor=#d5e8d4;fontStyle=1" parent="1" vertex="1">
          <mxGeometry x="2935" y="980" width="120" height="60" as="geometry" />
        </mxCell>
        <mxCell id="vwh4TKMZ7woZxt2ZBBR1-22" style="edgeStyle=elbowEdgeStyle;shape=connector;rounded=0;orthogonalLoop=1;jettySize=auto;html=1;labelBackgroundColor=default;strokeColor=default;strokeWidth=2;align=center;verticalAlign=middle;fontFamily=Helvetica;fontSize=12;fontColor=default;endArrow=none;endFill=0;elbow=vertical;fontStyle=1" parent="1" source="vwh4TKMZ7woZxt2ZBBR1-16" target="vwh4TKMZ7woZxt2ZBBR1-20" edge="1">
          <mxGeometry relative="1" as="geometry" />
        </mxCell>
        <mxCell id="vwh4TKMZ7woZxt2ZBBR1-23" style="edgeStyle=elbowEdgeStyle;shape=connector;rounded=0;orthogonalLoop=1;jettySize=auto;html=1;labelBackgroundColor=default;strokeColor=default;strokeWidth=2;align=center;verticalAlign=middle;fontFamily=Helvetica;fontSize=12;fontColor=default;endArrow=none;endFill=0;elbow=vertical;fontStyle=1" parent="1" source="vwh4TKMZ7woZxt2ZBBR1-16" target="vwh4TKMZ7woZxt2ZBBR1-21" edge="1">
          <mxGeometry relative="1" as="geometry" />
        </mxCell>
        <mxCell id="vwh4TKMZ7woZxt2ZBBR1-16" value="profile_picture" style="rounded=1;whiteSpace=wrap;html=1;strokeColor=#6c8ebf;strokeWidth=2;align=center;verticalAlign=middle;fontFamily=Helvetica;fontSize=12;fontColor=default;fillColor=#dae8fc;fontStyle=1" parent="1" vertex="1">
          <mxGeometry x="3135" y="1140" width="120" height="60" as="geometry" />
        </mxCell>
        <mxCell id="vwh4TKMZ7woZxt2ZBBR1-18" style="edgeStyle=orthogonalEdgeStyle;shape=connector;rounded=0;orthogonalLoop=1;jettySize=auto;html=1;labelBackgroundColor=default;strokeColor=default;strokeWidth=2;align=center;verticalAlign=middle;fontFamily=Helvetica;fontSize=12;fontColor=default;endArrow=none;endFill=0;fontStyle=1" parent="1" source="vwh4TKMZ7woZxt2ZBBR1-17" target="vwh4TKMZ7woZxt2ZBBR1-2" edge="1">
          <mxGeometry relative="1" as="geometry" />
        </mxCell>
        <mxCell id="vwh4TKMZ7woZxt2ZBBR1-24" value="1" style="edgeLabel;html=1;align=center;verticalAlign=middle;resizable=0;points=[];fontSize=12;fontFamily=Helvetica;fontColor=default;fontStyle=1" parent="vwh4TKMZ7woZxt2ZBBR1-18" vertex="1" connectable="0">
          <mxGeometry x="-0.7236" relative="1" as="geometry">
            <mxPoint as="offset" />
          </mxGeometry>
        </mxCell>
        <mxCell id="vwh4TKMZ7woZxt2ZBBR1-19" style="edgeStyle=orthogonalEdgeStyle;shape=link;rounded=0;orthogonalLoop=1;jettySize=auto;html=1;labelBackgroundColor=default;strokeColor=default;strokeWidth=2;align=center;verticalAlign=middle;fontFamily=Helvetica;fontSize=12;fontColor=default;endArrow=none;endFill=0;fontStyle=1" parent="1" source="vwh4TKMZ7woZxt2ZBBR1-17" target="vwh4TKMZ7woZxt2ZBBR1-16" edge="1">
          <mxGeometry relative="1" as="geometry" />
        </mxCell>
        <mxCell id="vwh4TKMZ7woZxt2ZBBR1-25" value="1" style="edgeLabel;html=1;align=center;verticalAlign=middle;resizable=0;points=[];fontSize=12;fontFamily=Helvetica;fontColor=default;fontStyle=1" parent="vwh4TKMZ7woZxt2ZBBR1-19" vertex="1" connectable="0">
          <mxGeometry x="-0.584" relative="1" as="geometry">
            <mxPoint as="offset" />
          </mxGeometry>
        </mxCell>
        <mxCell id="vwh4TKMZ7woZxt2ZBBR1-17" value="has" style="rhombus;whiteSpace=wrap;html=1;rounded=1;strokeColor=#b85450;strokeWidth=2;align=center;verticalAlign=middle;fontFamily=Helvetica;fontSize=12;fillColor=#f8cecc;fontStyle=1" parent="1" vertex="1">
          <mxGeometry x="2955" y="1130" width="80" height="80" as="geometry" />
        </mxCell>
        <mxCell id="vwh4TKMZ7woZxt2ZBBR1-20" value="&lt;font style=&quot;font-size: 16px;&quot;&gt;&lt;u&gt;picture_id&lt;/u&gt;&lt;/font&gt;" style="rounded=1;whiteSpace=wrap;html=1;arcSize=60;strokeColor=#82b366;strokeWidth=2;align=center;verticalAlign=middle;fontFamily=Helvetica;fontSize=12;fillColor=#d5e8d4;fontStyle=1" parent="1" vertex="1">
          <mxGeometry x="3075" y="980" width="120" height="60" as="geometry" />
        </mxCell>
        <mxCell id="vwh4TKMZ7woZxt2ZBBR1-21" value="&lt;font style=&quot;font-size: 16px;&quot;&gt;picture&lt;/font&gt;" style="rounded=1;whiteSpace=wrap;html=1;arcSize=60;strokeColor=#82b366;strokeWidth=2;align=center;verticalAlign=middle;fontFamily=Helvetica;fontSize=12;fillColor=#d5e8d4;fontStyle=1" parent="1" vertex="1">
          <mxGeometry x="3205" y="980" width="120" height="60" as="geometry" />
        </mxCell>
        <mxCell id="vwh4TKMZ7woZxt2ZBBR1-31" style="edgeStyle=elbowEdgeStyle;shape=link;rounded=0;orthogonalLoop=1;jettySize=auto;html=1;labelBackgroundColor=default;strokeColor=default;strokeWidth=2;align=center;verticalAlign=middle;fontFamily=Helvetica;fontSize=12;fontColor=default;endArrow=none;endFill=0;elbow=vertical;fontStyle=1" parent="1" source="vwh4TKMZ7woZxt2ZBBR1-26" target="vwh4TKMZ7woZxt2ZBBR1-2" edge="1">
          <mxGeometry relative="1" as="geometry" />
        </mxCell>
        <mxCell id="vwh4TKMZ7woZxt2ZBBR1-26" value="o" style="ellipse;whiteSpace=wrap;html=1;aspect=fixed;rounded=1;strokeColor=#9673a6;strokeWidth=2;align=center;verticalAlign=middle;fontFamily=Helvetica;fontSize=12;fillColor=#e1d5e7;fontStyle=1" parent="1" vertex="1">
          <mxGeometry x="2770" y="1250" width="30" height="30" as="geometry" />
        </mxCell>
        <mxCell id="vwh4TKMZ7woZxt2ZBBR1-29" style="edgeStyle=elbowEdgeStyle;shape=connector;rounded=0;orthogonalLoop=1;jettySize=auto;html=1;labelBackgroundColor=default;strokeColor=default;strokeWidth=2;align=center;verticalAlign=middle;fontFamily=Helvetica;fontSize=12;fontColor=default;endArrow=none;endFill=0;elbow=vertical;fontStyle=1" parent="1" source="vwh4TKMZ7woZxt2ZBBR1-27" target="vwh4TKMZ7woZxt2ZBBR1-26" edge="1">
          <mxGeometry relative="1" as="geometry" />
        </mxCell>
        <mxCell id="vwh4TKMZ7woZxt2ZBBR1-27" value="&lt;font style=&quot;font-size: 16px;&quot;&gt;&lt;span&gt;admin&lt;/span&gt;&lt;/font&gt;" style="rounded=1;whiteSpace=wrap;html=1;fillColor=#dae8fc;strokeColor=#6c8ebf;strokeWidth=2;fontStyle=1" parent="1" vertex="1">
          <mxGeometry x="2065" y="1410" width="120" height="60" as="geometry" />
        </mxCell>
        <mxCell id="vwh4TKMZ7woZxt2ZBBR1-30" style="edgeStyle=elbowEdgeStyle;shape=connector;rounded=0;orthogonalLoop=1;jettySize=auto;html=1;labelBackgroundColor=default;strokeColor=default;strokeWidth=2;align=center;verticalAlign=middle;fontFamily=Helvetica;fontSize=12;fontColor=default;endArrow=none;endFill=0;elbow=vertical;fontStyle=1" parent="1" source="vwh4TKMZ7woZxt2ZBBR1-28" target="vwh4TKMZ7woZxt2ZBBR1-26" edge="1">
          <mxGeometry relative="1" as="geometry" />
        </mxCell>
        <mxCell id="vwh4TKMZ7woZxt2ZBBR1-28" value="&lt;font style=&quot;font-size: 16px;&quot;&gt;&lt;span&gt;general&lt;/span&gt;&lt;/font&gt;" style="rounded=1;whiteSpace=wrap;html=1;fillColor=#dae8fc;strokeColor=#6c8ebf;strokeWidth=2;fontStyle=1" parent="1" vertex="1">
          <mxGeometry x="3372.5" y="1410" width="120" height="60" as="geometry" />
        </mxCell>
        <mxCell id="vwh4TKMZ7woZxt2ZBBR1-46" style="edgeStyle=elbowEdgeStyle;shape=connector;rounded=0;orthogonalLoop=1;jettySize=auto;html=1;labelBackgroundColor=default;strokeColor=default;strokeWidth=2;align=center;verticalAlign=middle;fontFamily=Helvetica;fontSize=12;fontColor=default;endArrow=none;endFill=0;elbow=vertical;fontStyle=1" parent="1" source="vwh4TKMZ7woZxt2ZBBR1-32" target="vwh4TKMZ7woZxt2ZBBR1-40" edge="1">
          <mxGeometry relative="1" as="geometry" />
        </mxCell>
        <mxCell id="vwh4TKMZ7woZxt2ZBBR1-47" style="edgeStyle=elbowEdgeStyle;shape=connector;rounded=0;orthogonalLoop=1;jettySize=auto;html=1;labelBackgroundColor=default;strokeColor=default;strokeWidth=2;align=center;verticalAlign=middle;fontFamily=Helvetica;fontSize=12;fontColor=default;endArrow=none;endFill=0;elbow=vertical;fontStyle=1" parent="1" source="vwh4TKMZ7woZxt2ZBBR1-32" target="vwh4TKMZ7woZxt2ZBBR1-41" edge="1">
          <mxGeometry relative="1" as="geometry" />
        </mxCell>
        <mxCell id="vwh4TKMZ7woZxt2ZBBR1-48" style="edgeStyle=elbowEdgeStyle;shape=connector;rounded=0;orthogonalLoop=1;jettySize=auto;html=1;labelBackgroundColor=default;strokeColor=default;strokeWidth=2;align=center;verticalAlign=middle;fontFamily=Helvetica;fontSize=12;fontColor=default;endArrow=none;endFill=0;elbow=vertical;fontStyle=1" parent="1" source="vwh4TKMZ7woZxt2ZBBR1-32" target="vwh4TKMZ7woZxt2ZBBR1-42" edge="1">
          <mxGeometry relative="1" as="geometry" />
        </mxCell>
        <mxCell id="vwh4TKMZ7woZxt2ZBBR1-49" style="edgeStyle=elbowEdgeStyle;shape=connector;rounded=0;orthogonalLoop=1;jettySize=auto;html=1;labelBackgroundColor=default;strokeColor=default;strokeWidth=2;align=center;verticalAlign=middle;fontFamily=Helvetica;fontSize=12;fontColor=default;endArrow=none;endFill=0;elbow=vertical;fontStyle=1" parent="1" source="vwh4TKMZ7woZxt2ZBBR1-32" target="vwh4TKMZ7woZxt2ZBBR1-44" edge="1">
          <mxGeometry relative="1" as="geometry" />
        </mxCell>
        <mxCell id="vwh4TKMZ7woZxt2ZBBR1-50" style="edgeStyle=elbowEdgeStyle;shape=connector;rounded=0;orthogonalLoop=1;jettySize=auto;html=1;labelBackgroundColor=default;strokeColor=default;strokeWidth=2;align=center;verticalAlign=middle;fontFamily=Helvetica;fontSize=12;fontColor=default;endArrow=none;endFill=0;elbow=vertical;fontStyle=1" parent="1" source="vwh4TKMZ7woZxt2ZBBR1-32" target="vwh4TKMZ7woZxt2ZBBR1-45" edge="1">
          <mxGeometry relative="1" as="geometry" />
        </mxCell>
        <mxCell id="Puczav_mlAhpV0eRWNq6-40" style="edgeStyle=elbowEdgeStyle;shape=connector;rounded=0;orthogonalLoop=1;jettySize=auto;html=1;labelBackgroundColor=default;strokeColor=default;strokeWidth=2;align=center;verticalAlign=middle;fontFamily=Helvetica;fontSize=11;fontColor=default;endArrow=none;endFill=0;elbow=vertical;fontStyle=1" parent="1" source="vwh4TKMZ7woZxt2ZBBR1-32" target="vwh4TKMZ7woZxt2ZBBR1-190" edge="1">
          <mxGeometry relative="1" as="geometry" />
        </mxCell>
        <mxCell id="Puczav_mlAhpV0eRWNq6-41" value="n" style="edgeLabel;html=1;align=center;verticalAlign=middle;resizable=0;points=[];fontSize=11;fontFamily=Helvetica;fontColor=default;fontStyle=1" parent="Puczav_mlAhpV0eRWNq6-40" vertex="1" connectable="0">
          <mxGeometry x="0.9719" relative="1" as="geometry">
            <mxPoint y="27" as="offset" />
          </mxGeometry>
        </mxCell>
        <mxCell id="vwh4TKMZ7woZxt2ZBBR1-32" value="manga" style="rounded=1;whiteSpace=wrap;html=1;strokeColor=#6c8ebf;strokeWidth=2;align=center;verticalAlign=middle;fontFamily=Helvetica;fontSize=12;fontColor=default;fillColor=#dae8fc;fontStyle=1" parent="1" vertex="1">
          <mxGeometry x="1865" y="2100" width="120" height="60" as="geometry" />
        </mxCell>
        <mxCell id="-6IDkBmVgf6BlsOlDVBG-16" style="edgeStyle=elbowEdgeStyle;shape=connector;rounded=0;orthogonalLoop=1;jettySize=auto;html=1;labelBackgroundColor=default;strokeColor=default;strokeWidth=2;align=center;verticalAlign=middle;fontFamily=Helvetica;fontSize=11;fontColor=default;endArrow=none;endFill=0;elbow=vertical;" parent="1" source="vwh4TKMZ7woZxt2ZBBR1-33" target="-6IDkBmVgf6BlsOlDVBG-15" edge="1">
          <mxGeometry relative="1" as="geometry" />
        </mxCell>
        <mxCell id="vwh4TKMZ7woZxt2ZBBR1-33" value="volume" style="rounded=1;whiteSpace=wrap;html=1;strokeColor=#6c8ebf;strokeWidth=2;align=center;verticalAlign=middle;fontFamily=Helvetica;fontSize=12;fontColor=default;fillColor=#dae8fc;fontStyle=1" parent="1" vertex="1">
          <mxGeometry x="2585" y="2100" width="120" height="60" as="geometry" />
        </mxCell>
        <mxCell id="vwh4TKMZ7woZxt2ZBBR1-35" style="edgeStyle=elbowEdgeStyle;shape=link;rounded=0;orthogonalLoop=1;jettySize=auto;html=1;labelBackgroundColor=default;strokeColor=default;strokeWidth=2;align=center;verticalAlign=middle;fontFamily=Helvetica;fontSize=12;fontColor=default;endArrow=none;endFill=0;elbow=vertical;fontStyle=1" parent="1" source="vwh4TKMZ7woZxt2ZBBR1-34" target="vwh4TKMZ7woZxt2ZBBR1-32" edge="1">
          <mxGeometry relative="1" as="geometry" />
        </mxCell>
        <mxCell id="vwh4TKMZ7woZxt2ZBBR1-38" value="1" style="edgeLabel;html=1;align=center;verticalAlign=middle;resizable=0;points=[];fontSize=12;fontFamily=Helvetica;fontColor=default;fontStyle=1" parent="vwh4TKMZ7woZxt2ZBBR1-35" vertex="1" connectable="0">
          <mxGeometry x="-0.75" y="-4" relative="1" as="geometry">
            <mxPoint x="8" y="4" as="offset" />
          </mxGeometry>
        </mxCell>
        <mxCell id="vwh4TKMZ7woZxt2ZBBR1-36" style="edgeStyle=orthogonalEdgeStyle;shape=link;rounded=0;orthogonalLoop=1;jettySize=auto;html=1;labelBackgroundColor=default;strokeColor=default;strokeWidth=2;align=center;verticalAlign=middle;fontFamily=Helvetica;fontSize=12;fontColor=default;endArrow=none;endFill=0;fontStyle=1" parent="1" source="vwh4TKMZ7woZxt2ZBBR1-34" target="vwh4TKMZ7woZxt2ZBBR1-33" edge="1">
          <mxGeometry relative="1" as="geometry" />
        </mxCell>
        <mxCell id="vwh4TKMZ7woZxt2ZBBR1-37" value="n" style="edgeLabel;html=1;align=center;verticalAlign=middle;resizable=0;points=[];fontSize=12;fontFamily=Helvetica;fontColor=default;fontStyle=1" parent="vwh4TKMZ7woZxt2ZBBR1-36" vertex="1" connectable="0">
          <mxGeometry x="-0.8631" relative="1" as="geometry">
            <mxPoint as="offset" />
          </mxGeometry>
        </mxCell>
        <mxCell id="vwh4TKMZ7woZxt2ZBBR1-34" value="has" style="rhombus;whiteSpace=wrap;html=1;rounded=1;strokeColor=#b85450;strokeWidth=2;align=center;verticalAlign=middle;fontFamily=Helvetica;fontSize=12;fontColor=default;fillColor=#f8cecc;fontStyle=1" parent="1" vertex="1">
          <mxGeometry x="2225" y="2090" width="80" height="80" as="geometry" />
        </mxCell>
        <mxCell id="vwh4TKMZ7woZxt2ZBBR1-40" value="&lt;u&gt;m_id&lt;/u&gt;" style="rounded=1;whiteSpace=wrap;html=1;arcSize=60;strokeColor=#82b366;strokeWidth=2;align=center;verticalAlign=middle;fontFamily=Helvetica;fontSize=12;fontColor=default;fillColor=#d5e8d4;fontStyle=1" parent="1" vertex="1">
          <mxGeometry x="1520" y="2290" width="120" height="60" as="geometry" />
        </mxCell>
        <mxCell id="vwh4TKMZ7woZxt2ZBBR1-41" value="m_title" style="rounded=1;whiteSpace=wrap;html=1;arcSize=60;strokeColor=#82b366;strokeWidth=2;align=center;verticalAlign=middle;fontFamily=Helvetica;fontSize=12;fontColor=default;fillColor=#d5e8d4;fontStyle=1" parent="1" vertex="1">
          <mxGeometry x="1660" y="2290" width="120" height="60" as="geometry" />
        </mxCell>
        <mxCell id="vwh4TKMZ7woZxt2ZBBR1-42" value="m_status" style="rounded=1;whiteSpace=wrap;html=1;arcSize=60;strokeColor=#82b366;strokeWidth=2;align=center;verticalAlign=middle;fontFamily=Helvetica;fontSize=12;fontColor=default;fillColor=#d5e8d4;fontStyle=1" parent="1" vertex="1">
          <mxGeometry x="1800" y="2290" width="120" height="60" as="geometry" />
        </mxCell>
        <mxCell id="vwh4TKMZ7woZxt2ZBBR1-44" value="m_publish_date" style="rounded=1;whiteSpace=wrap;html=1;arcSize=60;strokeColor=#82b366;strokeWidth=2;align=center;verticalAlign=middle;fontFamily=Helvetica;fontSize=12;fontColor=default;fillColor=#d5e8d4;fontStyle=1" parent="1" vertex="1">
          <mxGeometry x="1940" y="2290" width="120" height="60" as="geometry" />
        </mxCell>
        <mxCell id="vwh4TKMZ7woZxt2ZBBR1-45" value="m_view" style="rounded=1;whiteSpace=wrap;html=1;arcSize=60;strokeColor=#82b366;strokeWidth=2;align=center;verticalAlign=middle;fontFamily=Helvetica;fontSize=12;fontColor=default;fillColor=#d5e8d4;fontStyle=1" parent="1" vertex="1">
          <mxGeometry x="2080" y="2290" width="120" height="60" as="geometry" />
        </mxCell>
        <mxCell id="vwh4TKMZ7woZxt2ZBBR1-73" style="edgeStyle=elbowEdgeStyle;shape=connector;rounded=0;orthogonalLoop=1;jettySize=auto;html=1;labelBackgroundColor=default;strokeColor=default;strokeWidth=2;align=center;verticalAlign=middle;fontFamily=Helvetica;fontSize=12;fontColor=default;endArrow=none;endFill=0;elbow=vertical;fontStyle=1" parent="1" source="vwh4TKMZ7woZxt2ZBBR1-52" target="vwh4TKMZ7woZxt2ZBBR1-33" edge="1">
          <mxGeometry relative="1" as="geometry" />
        </mxCell>
        <mxCell id="vwh4TKMZ7woZxt2ZBBR1-52" value="&lt;u&gt;v_id&lt;/u&gt;" style="rounded=1;whiteSpace=wrap;html=1;arcSize=60;strokeColor=#82b366;strokeWidth=2;align=center;verticalAlign=middle;fontFamily=Helvetica;fontSize=12;fontColor=default;fillColor=#d5e8d4;fontStyle=1" parent="1" vertex="1">
          <mxGeometry x="2375" y="2290" width="120" height="60" as="geometry" />
        </mxCell>
        <mxCell id="vwh4TKMZ7woZxt2ZBBR1-74" style="edgeStyle=elbowEdgeStyle;shape=connector;rounded=0;orthogonalLoop=1;jettySize=auto;html=1;labelBackgroundColor=default;strokeColor=default;strokeWidth=2;align=center;verticalAlign=middle;fontFamily=Helvetica;fontSize=12;fontColor=default;endArrow=none;endFill=0;elbow=vertical;fontStyle=1" parent="1" source="vwh4TKMZ7woZxt2ZBBR1-53" target="vwh4TKMZ7woZxt2ZBBR1-33" edge="1">
          <mxGeometry relative="1" as="geometry" />
        </mxCell>
        <mxCell id="vwh4TKMZ7woZxt2ZBBR1-53" value="v_number" style="rounded=1;whiteSpace=wrap;html=1;arcSize=60;strokeColor=#82b366;strokeWidth=2;align=center;verticalAlign=middle;fontFamily=Helvetica;fontSize=12;fontColor=default;fillColor=#d5e8d4;fontStyle=1" parent="1" vertex="1">
          <mxGeometry x="2515" y="2290" width="120" height="60" as="geometry" />
        </mxCell>
        <mxCell id="vwh4TKMZ7woZxt2ZBBR1-75" style="edgeStyle=elbowEdgeStyle;shape=connector;rounded=0;orthogonalLoop=1;jettySize=auto;html=1;labelBackgroundColor=default;strokeColor=default;strokeWidth=2;align=center;verticalAlign=middle;fontFamily=Helvetica;fontSize=12;fontColor=default;endArrow=none;endFill=0;elbow=vertical;fontStyle=1" parent="1" source="vwh4TKMZ7woZxt2ZBBR1-54" target="vwh4TKMZ7woZxt2ZBBR1-33" edge="1">
          <mxGeometry relative="1" as="geometry" />
        </mxCell>
        <mxCell id="vwh4TKMZ7woZxt2ZBBR1-54" value="v_title" style="rounded=1;whiteSpace=wrap;html=1;arcSize=60;strokeColor=#82b366;strokeWidth=2;align=center;verticalAlign=middle;fontFamily=Helvetica;fontSize=12;fontColor=default;fillColor=#d5e8d4;fontStyle=1" parent="1" vertex="1">
          <mxGeometry x="2655" y="2290" width="120" height="60" as="geometry" />
        </mxCell>
        <mxCell id="vwh4TKMZ7woZxt2ZBBR1-76" style="edgeStyle=elbowEdgeStyle;shape=connector;rounded=0;orthogonalLoop=1;jettySize=auto;html=1;labelBackgroundColor=default;strokeColor=default;strokeWidth=2;align=center;verticalAlign=middle;fontFamily=Helvetica;fontSize=12;fontColor=default;endArrow=none;endFill=0;elbow=vertical;fontStyle=1" parent="1" source="vwh4TKMZ7woZxt2ZBBR1-55" target="vwh4TKMZ7woZxt2ZBBR1-33" edge="1">
          <mxGeometry relative="1" as="geometry" />
        </mxCell>
        <mxCell id="vwh4TKMZ7woZxt2ZBBR1-55" value="v_release_date" style="rounded=1;whiteSpace=wrap;html=1;arcSize=60;strokeColor=#82b366;strokeWidth=2;align=center;verticalAlign=middle;fontFamily=Helvetica;fontSize=12;fontColor=default;fillColor=#d5e8d4;fontStyle=1" parent="1" vertex="1">
          <mxGeometry x="2790" y="2290" width="120" height="60" as="geometry" />
        </mxCell>
        <mxCell id="vwh4TKMZ7woZxt2ZBBR1-71" style="edgeStyle=orthogonalEdgeStyle;shape=connector;rounded=0;orthogonalLoop=1;jettySize=auto;html=1;labelBackgroundColor=default;strokeColor=default;strokeWidth=2;align=center;verticalAlign=middle;fontFamily=Helvetica;fontSize=12;fontColor=default;endArrow=none;endFill=0;fontStyle=1" parent="1" source="vwh4TKMZ7woZxt2ZBBR1-58" target="vwh4TKMZ7woZxt2ZBBR1-69" edge="1">
          <mxGeometry relative="1" as="geometry" />
        </mxCell>
        <mxCell id="vwh4TKMZ7woZxt2ZBBR1-72" style="edgeStyle=orthogonalEdgeStyle;shape=connector;rounded=0;orthogonalLoop=1;jettySize=auto;html=1;labelBackgroundColor=default;strokeColor=default;strokeWidth=2;align=center;verticalAlign=middle;fontFamily=Helvetica;fontSize=12;fontColor=default;endArrow=none;endFill=0;fontStyle=1" parent="1" source="vwh4TKMZ7woZxt2ZBBR1-58" target="vwh4TKMZ7woZxt2ZBBR1-70" edge="1">
          <mxGeometry relative="1" as="geometry" />
        </mxCell>
        <mxCell id="vwh4TKMZ7woZxt2ZBBR1-58" value="&lt;font style=&quot;font-size: 16px;&quot;&gt;&lt;span&gt;volume_cover&lt;/span&gt;&lt;/font&gt;" style="rounded=1;whiteSpace=wrap;html=1;fillColor=#dae8fc;strokeColor=#6c8ebf;strokeWidth=2;fontStyle=1" parent="1" vertex="1">
          <mxGeometry x="3137.5" y="2160" width="120" height="60" as="geometry" />
        </mxCell>
        <mxCell id="vwh4TKMZ7woZxt2ZBBR1-69" value="&lt;u&gt;vc_id&lt;/u&gt;" style="rounded=1;whiteSpace=wrap;html=1;arcSize=60;strokeColor=#82b366;strokeWidth=2;align=center;verticalAlign=middle;fontFamily=Helvetica;fontSize=12;fontColor=default;fillColor=#d5e8d4;fontStyle=1" parent="1" vertex="1">
          <mxGeometry x="3070" y="2290" width="120" height="60" as="geometry" />
        </mxCell>
        <mxCell id="vwh4TKMZ7woZxt2ZBBR1-70" value="vc_picture" style="rounded=1;whiteSpace=wrap;html=1;arcSize=60;strokeColor=#82b366;strokeWidth=2;align=center;verticalAlign=middle;fontFamily=Helvetica;fontSize=12;fontColor=default;fillColor=#d5e8d4;fontStyle=1" parent="1" vertex="1">
          <mxGeometry x="3205" y="2290" width="120" height="60" as="geometry" />
        </mxCell>
        <mxCell id="vwh4TKMZ7woZxt2ZBBR1-78" style="edgeStyle=orthogonalEdgeStyle;shape=link;rounded=0;orthogonalLoop=1;jettySize=auto;html=1;labelBackgroundColor=default;strokeColor=default;strokeWidth=2;align=center;verticalAlign=middle;fontFamily=Helvetica;fontSize=12;fontColor=default;endArrow=none;endFill=0;fontStyle=1" parent="1" source="vwh4TKMZ7woZxt2ZBBR1-77" target="vwh4TKMZ7woZxt2ZBBR1-58" edge="1">
          <mxGeometry relative="1" as="geometry" />
        </mxCell>
        <mxCell id="vwh4TKMZ7woZxt2ZBBR1-97" value="1" style="edgeLabel;html=1;align=center;verticalAlign=middle;resizable=0;points=[];fontSize=12;fontFamily=Helvetica;fontColor=default;fontStyle=1" parent="vwh4TKMZ7woZxt2ZBBR1-78" vertex="1" connectable="0">
          <mxGeometry x="-0.5933" y="1" relative="1" as="geometry">
            <mxPoint as="offset" />
          </mxGeometry>
        </mxCell>
        <mxCell id="vwh4TKMZ7woZxt2ZBBR1-79" style="edgeStyle=orthogonalEdgeStyle;shape=connector;rounded=0;orthogonalLoop=1;jettySize=auto;html=1;labelBackgroundColor=default;strokeColor=default;strokeWidth=2;align=center;verticalAlign=middle;fontFamily=Helvetica;fontSize=12;fontColor=default;endArrow=none;endFill=0;fontStyle=1" parent="1" source="vwh4TKMZ7woZxt2ZBBR1-77" target="vwh4TKMZ7woZxt2ZBBR1-33" edge="1">
          <mxGeometry relative="1" as="geometry" />
        </mxCell>
        <mxCell id="vwh4TKMZ7woZxt2ZBBR1-98" value="1" style="edgeLabel;html=1;align=center;verticalAlign=middle;resizable=0;points=[];fontSize=12;fontFamily=Helvetica;fontColor=default;fontStyle=1" parent="vwh4TKMZ7woZxt2ZBBR1-79" vertex="1" connectable="0">
          <mxGeometry x="-0.7815" relative="1" as="geometry">
            <mxPoint as="offset" />
          </mxGeometry>
        </mxCell>
        <mxCell id="vwh4TKMZ7woZxt2ZBBR1-77" value="has" style="rhombus;whiteSpace=wrap;html=1;rounded=1;strokeColor=#b85450;strokeWidth=2;align=center;verticalAlign=middle;fontFamily=Helvetica;fontSize=12;fontColor=default;fillColor=#f8cecc;fontStyle=1" parent="1" vertex="1">
          <mxGeometry x="2845" y="2130" width="80" height="80" as="geometry" />
        </mxCell>
        <mxCell id="vwh4TKMZ7woZxt2ZBBR1-80" style="edgeStyle=orthogonalEdgeStyle;shape=connector;rounded=0;orthogonalLoop=1;jettySize=auto;html=1;labelBackgroundColor=default;strokeColor=default;strokeWidth=2;align=center;verticalAlign=middle;fontFamily=Helvetica;fontSize=12;fontColor=default;endArrow=none;endFill=0;fontStyle=1" parent="1" source="vwh4TKMZ7woZxt2ZBBR1-82" target="vwh4TKMZ7woZxt2ZBBR1-83" edge="1">
          <mxGeometry relative="1" as="geometry" />
        </mxCell>
        <mxCell id="vwh4TKMZ7woZxt2ZBBR1-81" style="edgeStyle=orthogonalEdgeStyle;shape=connector;rounded=0;orthogonalLoop=1;jettySize=auto;html=1;labelBackgroundColor=default;strokeColor=default;strokeWidth=2;align=center;verticalAlign=middle;fontFamily=Helvetica;fontSize=12;fontColor=default;endArrow=none;endFill=0;fontStyle=1" parent="1" source="vwh4TKMZ7woZxt2ZBBR1-82" target="vwh4TKMZ7woZxt2ZBBR1-84" edge="1">
          <mxGeometry relative="1" as="geometry" />
        </mxCell>
        <mxCell id="vwh4TKMZ7woZxt2ZBBR1-82" value="&lt;span style=&quot;font-size: 16px;&quot;&gt;&lt;span&gt;manga_file&lt;/span&gt;&lt;/span&gt;" style="rounded=1;whiteSpace=wrap;html=1;fillColor=#dae8fc;strokeColor=#6c8ebf;strokeWidth=2;fontStyle=1" parent="1" vertex="1">
          <mxGeometry x="3432.5" y="1980" width="120" height="60" as="geometry" />
        </mxCell>
        <mxCell id="vwh4TKMZ7woZxt2ZBBR1-83" value="&lt;u&gt;mf_id&lt;/u&gt;" style="rounded=1;whiteSpace=wrap;html=1;arcSize=60;strokeColor=#82b366;strokeWidth=2;align=center;verticalAlign=middle;fontFamily=Helvetica;fontSize=12;fontColor=default;fillColor=#d5e8d4;fontStyle=1" parent="1" vertex="1">
          <mxGeometry x="3355" y="1840" width="120" height="60" as="geometry" />
        </mxCell>
        <mxCell id="vwh4TKMZ7woZxt2ZBBR1-84" value="mf_file" style="rounded=1;whiteSpace=wrap;html=1;arcSize=60;strokeColor=#82b366;strokeWidth=2;align=center;verticalAlign=middle;fontFamily=Helvetica;fontSize=12;fontColor=default;fillColor=#d5e8d4;fontStyle=1" parent="1" vertex="1">
          <mxGeometry x="3505" y="1840" width="120" height="60" as="geometry" />
        </mxCell>
        <mxCell id="vwh4TKMZ7woZxt2ZBBR1-85" style="edgeStyle=orthogonalEdgeStyle;shape=link;rounded=0;orthogonalLoop=1;jettySize=auto;html=1;labelBackgroundColor=default;strokeColor=default;strokeWidth=2;align=center;verticalAlign=middle;fontFamily=Helvetica;fontSize=12;fontColor=default;endArrow=none;endFill=0;elbow=vertical;fontStyle=1" parent="1" source="vwh4TKMZ7woZxt2ZBBR1-88" target="vwh4TKMZ7woZxt2ZBBR1-82" edge="1">
          <mxGeometry relative="1" as="geometry" />
        </mxCell>
        <mxCell id="vwh4TKMZ7woZxt2ZBBR1-86" value="1" style="edgeLabel;html=1;align=center;verticalAlign=middle;resizable=0;points=[];fontSize=12;fontFamily=Helvetica;fontColor=default;fontStyle=1" parent="vwh4TKMZ7woZxt2ZBBR1-85" vertex="1" connectable="0">
          <mxGeometry x="-0.5826" y="1" relative="1" as="geometry">
            <mxPoint as="offset" />
          </mxGeometry>
        </mxCell>
        <mxCell id="vwh4TKMZ7woZxt2ZBBR1-88" value="has" style="rhombus;whiteSpace=wrap;html=1;rounded=1;strokeColor=#b85450;strokeWidth=2;align=center;verticalAlign=middle;fontFamily=Helvetica;fontSize=12;fontColor=default;fillColor=#f8cecc;fontStyle=1" parent="1" vertex="1">
          <mxGeometry x="3245" y="1970" width="80" height="80" as="geometry" />
        </mxCell>
        <mxCell id="vwh4TKMZ7woZxt2ZBBR1-99" style="edgeStyle=elbowEdgeStyle;shape=link;rounded=0;orthogonalLoop=1;jettySize=auto;html=1;labelBackgroundColor=default;strokeColor=default;strokeWidth=2;align=center;verticalAlign=middle;fontFamily=Helvetica;fontSize=12;fontColor=default;endArrow=none;endFill=0;elbow=vertical;fontStyle=1" parent="1" source="vwh4TKMZ7woZxt2ZBBR1-90" target="vwh4TKMZ7woZxt2ZBBR1-88" edge="1">
          <mxGeometry relative="1" as="geometry" />
        </mxCell>
        <mxCell id="vwh4TKMZ7woZxt2ZBBR1-100" value="1" style="edgeLabel;html=1;align=center;verticalAlign=middle;resizable=0;points=[];fontSize=12;fontFamily=Helvetica;fontColor=default;fontStyle=1" parent="vwh4TKMZ7woZxt2ZBBR1-99" vertex="1" connectable="0">
          <mxGeometry x="0.6405" relative="1" as="geometry">
            <mxPoint as="offset" />
          </mxGeometry>
        </mxCell>
        <mxCell id="vwh4TKMZ7woZxt2ZBBR1-105" style="edgeStyle=elbowEdgeStyle;shape=connector;rounded=0;orthogonalLoop=1;jettySize=auto;html=1;labelBackgroundColor=default;strokeColor=default;strokeWidth=2;align=center;verticalAlign=middle;fontFamily=Helvetica;fontSize=12;fontColor=default;endArrow=none;endFill=0;elbow=vertical;fontStyle=1" parent="1" source="vwh4TKMZ7woZxt2ZBBR1-90" target="vwh4TKMZ7woZxt2ZBBR1-101" edge="1">
          <mxGeometry relative="1" as="geometry" />
        </mxCell>
        <mxCell id="vwh4TKMZ7woZxt2ZBBR1-106" style="edgeStyle=elbowEdgeStyle;shape=connector;rounded=0;orthogonalLoop=1;jettySize=auto;html=1;labelBackgroundColor=default;strokeColor=default;strokeWidth=2;align=center;verticalAlign=middle;fontFamily=Helvetica;fontSize=12;fontColor=default;endArrow=none;endFill=0;elbow=vertical;fontStyle=1" parent="1" source="vwh4TKMZ7woZxt2ZBBR1-90" target="vwh4TKMZ7woZxt2ZBBR1-102" edge="1">
          <mxGeometry relative="1" as="geometry" />
        </mxCell>
        <mxCell id="vwh4TKMZ7woZxt2ZBBR1-107" style="edgeStyle=elbowEdgeStyle;shape=connector;rounded=0;orthogonalLoop=1;jettySize=auto;html=1;labelBackgroundColor=default;strokeColor=default;strokeWidth=2;align=center;verticalAlign=middle;fontFamily=Helvetica;fontSize=12;fontColor=default;endArrow=none;endFill=0;elbow=vertical;fontStyle=1" parent="1" source="vwh4TKMZ7woZxt2ZBBR1-90" target="vwh4TKMZ7woZxt2ZBBR1-104" edge="1">
          <mxGeometry relative="1" as="geometry" />
        </mxCell>
        <mxCell id="vwh4TKMZ7woZxt2ZBBR1-120" style="edgeStyle=elbowEdgeStyle;shape=connector;rounded=0;orthogonalLoop=1;jettySize=auto;html=1;labelBackgroundColor=default;strokeColor=default;strokeWidth=2;align=center;verticalAlign=middle;fontFamily=Helvetica;fontSize=12;fontColor=default;endArrow=none;endFill=0;elbow=vertical;fontStyle=1" parent="1" source="vwh4TKMZ7woZxt2ZBBR1-90" target="vwh4TKMZ7woZxt2ZBBR1-119" edge="1">
          <mxGeometry relative="1" as="geometry" />
        </mxCell>
        <mxCell id="vwh4TKMZ7woZxt2ZBBR1-90" value="&lt;font style=&quot;font-size: 16px;&quot;&gt;&lt;span&gt;chapter&lt;/span&gt;&lt;/font&gt;" style="rounded=1;whiteSpace=wrap;html=1;fillColor=#dae8fc;strokeColor=#6c8ebf;strokeWidth=2;fontStyle=1" parent="1" vertex="1">
          <mxGeometry x="3005" y="1980" width="120" height="60" as="geometry" />
        </mxCell>
        <mxCell id="vwh4TKMZ7woZxt2ZBBR1-92" style="edgeStyle=elbowEdgeStyle;shape=link;rounded=0;orthogonalLoop=1;jettySize=auto;html=1;labelBackgroundColor=default;strokeColor=default;strokeWidth=2;align=center;verticalAlign=middle;fontFamily=Helvetica;fontSize=12;fontColor=default;endArrow=none;endFill=0;elbow=vertical;fontStyle=1" parent="1" source="vwh4TKMZ7woZxt2ZBBR1-91" target="vwh4TKMZ7woZxt2ZBBR1-90" edge="1">
          <mxGeometry relative="1" as="geometry" />
        </mxCell>
        <mxCell id="vwh4TKMZ7woZxt2ZBBR1-94" value="n" style="edgeLabel;html=1;align=center;verticalAlign=middle;resizable=0;points=[];fontSize=12;fontFamily=Helvetica;fontColor=default;fontStyle=1" parent="vwh4TKMZ7woZxt2ZBBR1-92" vertex="1" connectable="0">
          <mxGeometry x="-0.6553" y="-1" relative="1" as="geometry">
            <mxPoint as="offset" />
          </mxGeometry>
        </mxCell>
        <mxCell id="vwh4TKMZ7woZxt2ZBBR1-93" style="edgeStyle=orthogonalEdgeStyle;shape=link;rounded=0;orthogonalLoop=1;jettySize=auto;html=1;labelBackgroundColor=default;strokeColor=default;strokeWidth=2;align=center;verticalAlign=middle;fontFamily=Helvetica;fontSize=12;fontColor=default;endArrow=none;endFill=0;fontStyle=1" parent="1" source="vwh4TKMZ7woZxt2ZBBR1-91" target="vwh4TKMZ7woZxt2ZBBR1-33" edge="1">
          <mxGeometry relative="1" as="geometry" />
        </mxCell>
        <mxCell id="vwh4TKMZ7woZxt2ZBBR1-95" value="1" style="edgeLabel;html=1;align=center;verticalAlign=middle;resizable=0;points=[];fontSize=12;fontFamily=Helvetica;fontColor=default;fontStyle=1" parent="vwh4TKMZ7woZxt2ZBBR1-93" vertex="1" connectable="0">
          <mxGeometry x="-0.825" y="1" relative="1" as="geometry">
            <mxPoint as="offset" />
          </mxGeometry>
        </mxCell>
        <mxCell id="vwh4TKMZ7woZxt2ZBBR1-91" value="has" style="rhombus;whiteSpace=wrap;html=1;rounded=1;strokeColor=#b85450;strokeWidth=2;align=center;verticalAlign=middle;fontFamily=Helvetica;fontSize=12;fontColor=default;fillColor=#f8cecc;fontStyle=1" parent="1" vertex="1">
          <mxGeometry x="2820" y="1980" width="80" height="80" as="geometry" />
        </mxCell>
        <mxCell id="vwh4TKMZ7woZxt2ZBBR1-101" value="&lt;u&gt;c_id&lt;/u&gt;" style="rounded=1;whiteSpace=wrap;html=1;arcSize=60;strokeColor=#82b366;strokeWidth=2;align=center;verticalAlign=middle;fontFamily=Helvetica;fontSize=12;fontColor=default;fillColor=#d5e8d4;fontStyle=1" parent="1" vertex="1">
          <mxGeometry x="2630" y="1840" width="120" height="60" as="geometry" />
        </mxCell>
        <mxCell id="vwh4TKMZ7woZxt2ZBBR1-102" value="c_number" style="rounded=1;whiteSpace=wrap;html=1;arcSize=60;strokeColor=#82b366;strokeWidth=2;align=center;verticalAlign=middle;fontFamily=Helvetica;fontSize=12;fontColor=default;fillColor=#d5e8d4;fontStyle=1" parent="1" vertex="1">
          <mxGeometry x="2770" y="1840" width="120" height="60" as="geometry" />
        </mxCell>
        <mxCell id="vwh4TKMZ7woZxt2ZBBR1-104" value="c_release_date" style="rounded=1;whiteSpace=wrap;html=1;arcSize=60;strokeColor=#82b366;strokeWidth=2;align=center;verticalAlign=middle;fontFamily=Helvetica;fontSize=12;fontColor=default;fillColor=#d5e8d4;fontStyle=1" parent="1" vertex="1">
          <mxGeometry x="2910" y="1840" width="120" height="60" as="geometry" />
        </mxCell>
        <mxCell id="vwh4TKMZ7woZxt2ZBBR1-108" style="edgeStyle=orthogonalEdgeStyle;shape=connector;rounded=0;orthogonalLoop=1;jettySize=auto;html=1;labelBackgroundColor=default;strokeColor=default;strokeWidth=2;align=center;verticalAlign=middle;fontFamily=Helvetica;fontSize=12;fontColor=default;endArrow=none;endFill=0;fontStyle=1" parent="1" source="vwh4TKMZ7woZxt2ZBBR1-110" target="vwh4TKMZ7woZxt2ZBBR1-111" edge="1">
          <mxGeometry relative="1" as="geometry" />
        </mxCell>
        <mxCell id="vwh4TKMZ7woZxt2ZBBR1-109" style="edgeStyle=orthogonalEdgeStyle;shape=connector;rounded=0;orthogonalLoop=1;jettySize=auto;html=1;labelBackgroundColor=default;strokeColor=default;strokeWidth=2;align=center;verticalAlign=middle;fontFamily=Helvetica;fontSize=12;fontColor=default;endArrow=none;endFill=0;fontStyle=1" parent="1" source="vwh4TKMZ7woZxt2ZBBR1-110" target="vwh4TKMZ7woZxt2ZBBR1-112" edge="1">
          <mxGeometry relative="1" as="geometry" />
        </mxCell>
        <mxCell id="vwh4TKMZ7woZxt2ZBBR1-110" value="&lt;font style=&quot;font-size: 16px;&quot;&gt;&lt;span&gt;chapter_cover&lt;/span&gt;&lt;/font&gt;" style="rounded=1;whiteSpace=wrap;html=1;fillColor=#dae8fc;strokeColor=#6c8ebf;strokeWidth=2;fontStyle=1" parent="1" vertex="1">
          <mxGeometry x="3425" y="2160" width="120" height="60" as="geometry" />
        </mxCell>
        <mxCell id="vwh4TKMZ7woZxt2ZBBR1-111" value="&lt;u&gt;cc_id&lt;/u&gt;" style="rounded=1;whiteSpace=wrap;html=1;arcSize=60;strokeColor=#82b366;strokeWidth=2;align=center;verticalAlign=middle;fontFamily=Helvetica;fontSize=12;fontColor=default;fillColor=#d5e8d4;fontStyle=1" parent="1" vertex="1">
          <mxGeometry x="3357.5" y="2290" width="120" height="60" as="geometry" />
        </mxCell>
        <mxCell id="vwh4TKMZ7woZxt2ZBBR1-112" value="cc_picture" style="rounded=1;whiteSpace=wrap;html=1;arcSize=60;strokeColor=#82b366;strokeWidth=2;align=center;verticalAlign=middle;fontFamily=Helvetica;fontSize=12;fontColor=default;fillColor=#d5e8d4;fontStyle=1" parent="1" vertex="1">
          <mxGeometry x="3492.5" y="2290" width="120" height="60" as="geometry" />
        </mxCell>
        <mxCell id="vwh4TKMZ7woZxt2ZBBR1-115" style="edgeStyle=orthogonalEdgeStyle;shape=link;rounded=0;orthogonalLoop=1;jettySize=auto;html=1;labelBackgroundColor=default;strokeColor=default;strokeWidth=2;align=center;verticalAlign=middle;fontFamily=Helvetica;fontSize=12;fontColor=default;endArrow=none;endFill=0;fontStyle=1" parent="1" source="vwh4TKMZ7woZxt2ZBBR1-114" target="vwh4TKMZ7woZxt2ZBBR1-110" edge="1">
          <mxGeometry relative="1" as="geometry" />
        </mxCell>
        <mxCell id="vwh4TKMZ7woZxt2ZBBR1-117" value="1" style="edgeLabel;html=1;align=center;verticalAlign=middle;resizable=0;points=[];fontSize=12;fontFamily=Helvetica;fontColor=default;fontStyle=1" parent="vwh4TKMZ7woZxt2ZBBR1-115" vertex="1" connectable="0">
          <mxGeometry x="-0.7035" relative="1" as="geometry">
            <mxPoint as="offset" />
          </mxGeometry>
        </mxCell>
        <mxCell id="vwh4TKMZ7woZxt2ZBBR1-116" style="edgeStyle=orthogonalEdgeStyle;shape=connector;rounded=0;orthogonalLoop=1;jettySize=auto;html=1;labelBackgroundColor=default;strokeColor=default;strokeWidth=2;align=center;verticalAlign=middle;fontFamily=Helvetica;fontSize=12;fontColor=default;endArrow=none;endFill=0;fontStyle=1" parent="1" source="vwh4TKMZ7woZxt2ZBBR1-114" target="vwh4TKMZ7woZxt2ZBBR1-90" edge="1">
          <mxGeometry relative="1" as="geometry" />
        </mxCell>
        <mxCell id="vwh4TKMZ7woZxt2ZBBR1-118" value="1" style="edgeLabel;html=1;align=center;verticalAlign=middle;resizable=0;points=[];fontSize=12;fontFamily=Helvetica;fontColor=default;fontStyle=1" parent="vwh4TKMZ7woZxt2ZBBR1-116" vertex="1" connectable="0">
          <mxGeometry x="-0.7061" y="2" relative="1" as="geometry">
            <mxPoint as="offset" />
          </mxGeometry>
        </mxCell>
        <mxCell id="vwh4TKMZ7woZxt2ZBBR1-114" value="has" style="rhombus;whiteSpace=wrap;html=1;rounded=1;strokeColor=#b85450;strokeWidth=2;align=center;verticalAlign=middle;fontFamily=Helvetica;fontSize=12;fontColor=default;fillColor=#f8cecc;fontStyle=1" parent="1" vertex="1">
          <mxGeometry x="3155" y="2070" width="80" height="80" as="geometry" />
        </mxCell>
        <mxCell id="vwh4TKMZ7woZxt2ZBBR1-119" value="c_page_count" style="rounded=1;whiteSpace=wrap;html=1;arcSize=60;strokeColor=#82b366;strokeWidth=2;align=center;verticalAlign=middle;fontFamily=Helvetica;fontSize=12;fontColor=default;fillColor=#d5e8d4;fontStyle=1" parent="1" vertex="1">
          <mxGeometry x="3047.5" y="1840" width="120" height="60" as="geometry" />
        </mxCell>
        <mxCell id="vwh4TKMZ7woZxt2ZBBR1-150" style="edgeStyle=elbowEdgeStyle;shape=connector;rounded=0;orthogonalLoop=1;jettySize=auto;html=1;labelBackgroundColor=default;strokeColor=default;strokeWidth=2;align=center;verticalAlign=middle;fontFamily=Helvetica;fontSize=12;fontColor=default;endArrow=none;endFill=0;fontStyle=1" parent="1" source="vwh4TKMZ7woZxt2ZBBR1-122" target="vwh4TKMZ7woZxt2ZBBR1-147" edge="1">
          <mxGeometry relative="1" as="geometry" />
        </mxCell>
        <mxCell id="vwh4TKMZ7woZxt2ZBBR1-151" style="edgeStyle=elbowEdgeStyle;shape=connector;rounded=0;orthogonalLoop=1;jettySize=auto;html=1;labelBackgroundColor=default;strokeColor=default;strokeWidth=2;align=center;verticalAlign=middle;fontFamily=Helvetica;fontSize=12;fontColor=default;endArrow=none;endFill=0;fontStyle=1" parent="1" source="vwh4TKMZ7woZxt2ZBBR1-122" target="vwh4TKMZ7woZxt2ZBBR1-148" edge="1">
          <mxGeometry relative="1" as="geometry" />
        </mxCell>
        <mxCell id="vwh4TKMZ7woZxt2ZBBR1-152" style="edgeStyle=elbowEdgeStyle;shape=connector;rounded=0;orthogonalLoop=1;jettySize=auto;html=1;labelBackgroundColor=default;strokeColor=default;strokeWidth=2;align=center;verticalAlign=middle;fontFamily=Helvetica;fontSize=12;fontColor=default;endArrow=none;endFill=0;fontStyle=1" parent="1" source="vwh4TKMZ7woZxt2ZBBR1-122" target="vwh4TKMZ7woZxt2ZBBR1-149" edge="1">
          <mxGeometry relative="1" as="geometry" />
        </mxCell>
        <mxCell id="Puczav_mlAhpV0eRWNq6-32" style="edgeStyle=orthogonalEdgeStyle;shape=connector;rounded=0;orthogonalLoop=1;jettySize=auto;html=1;labelBackgroundColor=default;strokeColor=default;strokeWidth=2;align=center;verticalAlign=middle;fontFamily=Helvetica;fontSize=11;fontColor=default;endArrow=none;endFill=0;fontStyle=1" parent="1" source="vwh4TKMZ7woZxt2ZBBR1-122" target="Puczav_mlAhpV0eRWNq6-31" edge="1">
          <mxGeometry relative="1" as="geometry" />
        </mxCell>
        <mxCell id="vwh4TKMZ7woZxt2ZBBR1-122" value="&lt;font style=&quot;font-size: 16px;&quot;&gt;&lt;span&gt;author&lt;/span&gt;&lt;/font&gt;" style="rounded=1;whiteSpace=wrap;html=1;fillColor=#dae8fc;strokeColor=#6c8ebf;strokeWidth=2;fontStyle=1" parent="1" vertex="1">
          <mxGeometry x="1275" y="2100" width="120" height="60" as="geometry" />
        </mxCell>
        <mxCell id="Puczav_mlAhpV0eRWNq6-27" style="shape=connector;rounded=0;orthogonalLoop=1;jettySize=auto;html=1;labelBackgroundColor=default;strokeColor=default;strokeWidth=2;align=center;verticalAlign=middle;fontFamily=Helvetica;fontSize=11;fontColor=default;endArrow=none;endFill=0;fontStyle=1" parent="1" source="vwh4TKMZ7woZxt2ZBBR1-123" target="Puczav_mlAhpV0eRWNq6-26" edge="1">
          <mxGeometry relative="1" as="geometry" />
        </mxCell>
        <mxCell id="Puczav_mlAhpV0eRWNq6-29" value="1" style="edgeLabel;html=1;align=center;verticalAlign=middle;resizable=0;points=[];fontSize=11;fontFamily=Helvetica;fontColor=default;fontStyle=1" parent="Puczav_mlAhpV0eRWNq6-27" vertex="1" connectable="0">
          <mxGeometry x="0.8574" relative="1" as="geometry">
            <mxPoint as="offset" />
          </mxGeometry>
        </mxCell>
        <mxCell id="vwh4TKMZ7woZxt2ZBBR1-123" value="&lt;span&gt;publisher&lt;/span&gt;" style="rounded=1;whiteSpace=wrap;html=1;fillColor=#dae8fc;strokeColor=#6c8ebf;strokeWidth=2;fontStyle=1" parent="1" vertex="1">
          <mxGeometry x="1275" y="1890" width="120" height="60" as="geometry" />
        </mxCell>
        <mxCell id="vwh4TKMZ7woZxt2ZBBR1-164" style="edgeStyle=elbowEdgeStyle;shape=connector;rounded=0;orthogonalLoop=1;jettySize=auto;html=1;labelBackgroundColor=default;strokeColor=default;strokeWidth=2;align=center;verticalAlign=middle;fontFamily=Helvetica;fontSize=12;fontColor=default;endArrow=none;endFill=0;fontStyle=1" parent="1" source="vwh4TKMZ7woZxt2ZBBR1-124" target="vwh4TKMZ7woZxt2ZBBR1-160" edge="1">
          <mxGeometry relative="1" as="geometry" />
        </mxCell>
        <mxCell id="vwh4TKMZ7woZxt2ZBBR1-165" style="edgeStyle=elbowEdgeStyle;shape=connector;rounded=0;orthogonalLoop=1;jettySize=auto;html=1;labelBackgroundColor=default;strokeColor=default;strokeWidth=2;align=center;verticalAlign=middle;fontFamily=Helvetica;fontSize=12;fontColor=default;endArrow=none;endFill=0;fontStyle=1" parent="1" source="vwh4TKMZ7woZxt2ZBBR1-124" target="vwh4TKMZ7woZxt2ZBBR1-159" edge="1">
          <mxGeometry relative="1" as="geometry" />
        </mxCell>
        <mxCell id="vwh4TKMZ7woZxt2ZBBR1-124" value="&lt;span&gt;catagory&lt;/span&gt;" style="rounded=1;whiteSpace=wrap;html=1;fillColor=#dae8fc;strokeColor=#6c8ebf;strokeWidth=2;fontStyle=1" parent="1" vertex="1">
          <mxGeometry x="1275" y="1660" width="120" height="60" as="geometry" />
        </mxCell>
        <mxCell id="vwh4TKMZ7woZxt2ZBBR1-127" style="edgeStyle=orthogonalEdgeStyle;shape=link;rounded=0;orthogonalLoop=1;jettySize=auto;html=1;labelBackgroundColor=default;strokeColor=default;strokeWidth=2;align=center;verticalAlign=middle;fontFamily=Helvetica;fontSize=12;fontColor=default;endArrow=none;endFill=0;fontStyle=1" parent="1" source="vwh4TKMZ7woZxt2ZBBR1-126" target="vwh4TKMZ7woZxt2ZBBR1-122" edge="1">
          <mxGeometry relative="1" as="geometry" />
        </mxCell>
        <mxCell id="vwh4TKMZ7woZxt2ZBBR1-131" value="m" style="edgeLabel;html=1;align=center;verticalAlign=middle;resizable=0;points=[];fontSize=12;fontFamily=Helvetica;fontColor=default;fontStyle=1" parent="vwh4TKMZ7woZxt2ZBBR1-127" vertex="1" connectable="0">
          <mxGeometry x="-0.7609" relative="1" as="geometry">
            <mxPoint as="offset" />
          </mxGeometry>
        </mxCell>
        <mxCell id="vwh4TKMZ7woZxt2ZBBR1-128" style="edgeStyle=orthogonalEdgeStyle;shape=link;rounded=0;orthogonalLoop=1;jettySize=auto;html=1;labelBackgroundColor=default;strokeColor=default;strokeWidth=2;align=center;verticalAlign=middle;fontFamily=Helvetica;fontSize=12;fontColor=default;endArrow=none;endFill=0;fontStyle=1" parent="1" source="vwh4TKMZ7woZxt2ZBBR1-126" target="vwh4TKMZ7woZxt2ZBBR1-32" edge="1">
          <mxGeometry relative="1" as="geometry" />
        </mxCell>
        <mxCell id="vwh4TKMZ7woZxt2ZBBR1-130" value="n" style="edgeLabel;html=1;align=center;verticalAlign=middle;resizable=0;points=[];fontSize=12;fontFamily=Helvetica;fontColor=default;fontStyle=1" parent="vwh4TKMZ7woZxt2ZBBR1-128" vertex="1" connectable="0">
          <mxGeometry x="-0.73" relative="1" as="geometry">
            <mxPoint as="offset" />
          </mxGeometry>
        </mxCell>
        <mxCell id="vwh4TKMZ7woZxt2ZBBR1-126" value="has" style="rhombus;whiteSpace=wrap;html=1;rounded=1;strokeColor=#b85450;strokeWidth=2;align=center;verticalAlign=middle;fontFamily=Helvetica;fontSize=12;fontColor=default;fillColor=#f8cecc;fontStyle=1" parent="1" vertex="1">
          <mxGeometry x="1585" y="2090" width="80" height="80" as="geometry" />
        </mxCell>
        <mxCell id="vwh4TKMZ7woZxt2ZBBR1-133" style="edgeStyle=orthogonalEdgeStyle;shape=link;rounded=0;orthogonalLoop=1;jettySize=auto;html=1;labelBackgroundColor=default;strokeColor=default;strokeWidth=2;align=center;verticalAlign=middle;fontFamily=Helvetica;fontSize=12;fontColor=default;endArrow=none;endFill=0;fontStyle=1" parent="1" source="vwh4TKMZ7woZxt2ZBBR1-132" target="vwh4TKMZ7woZxt2ZBBR1-32" edge="1">
          <mxGeometry relative="1" as="geometry" />
        </mxCell>
        <mxCell id="vwh4TKMZ7woZxt2ZBBR1-135" value="n" style="edgeLabel;html=1;align=center;verticalAlign=middle;resizable=0;points=[];fontSize=12;fontFamily=Helvetica;fontColor=default;fontStyle=1" parent="vwh4TKMZ7woZxt2ZBBR1-133" vertex="1" connectable="0">
          <mxGeometry x="-0.8981" y="2" relative="1" as="geometry">
            <mxPoint as="offset" />
          </mxGeometry>
        </mxCell>
        <mxCell id="vwh4TKMZ7woZxt2ZBBR1-134" style="edgeStyle=orthogonalEdgeStyle;shape=link;rounded=0;orthogonalLoop=1;jettySize=auto;html=1;labelBackgroundColor=default;strokeColor=default;strokeWidth=2;align=center;verticalAlign=middle;fontFamily=Helvetica;fontSize=12;fontColor=default;endArrow=none;endFill=0;fontStyle=1" parent="1" source="vwh4TKMZ7woZxt2ZBBR1-132" target="vwh4TKMZ7woZxt2ZBBR1-123" edge="1">
          <mxGeometry relative="1" as="geometry" />
        </mxCell>
        <mxCell id="vwh4TKMZ7woZxt2ZBBR1-136" value="m" style="edgeLabel;html=1;align=center;verticalAlign=middle;resizable=0;points=[];fontSize=12;fontFamily=Helvetica;fontColor=default;fontStyle=1" parent="vwh4TKMZ7woZxt2ZBBR1-134" vertex="1" connectable="0">
          <mxGeometry x="-0.8145" y="1" relative="1" as="geometry">
            <mxPoint y="-2" as="offset" />
          </mxGeometry>
        </mxCell>
        <mxCell id="vwh4TKMZ7woZxt2ZBBR1-132" value="has" style="rhombus;whiteSpace=wrap;html=1;rounded=1;strokeColor=#b85450;strokeWidth=2;align=center;verticalAlign=middle;fontFamily=Helvetica;fontSize=12;fontColor=default;fillColor=#f8cecc;fontStyle=1" parent="1" vertex="1">
          <mxGeometry x="1585" y="1880" width="80" height="80" as="geometry" />
        </mxCell>
        <mxCell id="vwh4TKMZ7woZxt2ZBBR1-138" style="edgeStyle=orthogonalEdgeStyle;shape=link;rounded=0;orthogonalLoop=1;jettySize=auto;html=1;labelBackgroundColor=default;strokeColor=default;strokeWidth=2;align=center;verticalAlign=middle;fontFamily=Helvetica;fontSize=12;fontColor=default;endArrow=none;endFill=0;fontStyle=1" parent="1" source="vwh4TKMZ7woZxt2ZBBR1-137" target="vwh4TKMZ7woZxt2ZBBR1-32" edge="1">
          <mxGeometry relative="1" as="geometry" />
        </mxCell>
        <mxCell id="vwh4TKMZ7woZxt2ZBBR1-140" value="n" style="edgeLabel;html=1;align=center;verticalAlign=middle;resizable=0;points=[];fontSize=12;fontFamily=Helvetica;fontColor=default;fontStyle=1" parent="vwh4TKMZ7woZxt2ZBBR1-138" vertex="1" connectable="0">
          <mxGeometry x="-0.9092" relative="1" as="geometry">
            <mxPoint as="offset" />
          </mxGeometry>
        </mxCell>
        <mxCell id="vwh4TKMZ7woZxt2ZBBR1-139" style="edgeStyle=orthogonalEdgeStyle;shape=link;rounded=0;orthogonalLoop=1;jettySize=auto;html=1;labelBackgroundColor=default;strokeColor=default;strokeWidth=2;align=center;verticalAlign=middle;fontFamily=Helvetica;fontSize=12;fontColor=default;endArrow=none;endFill=0;fontStyle=1" parent="1" source="vwh4TKMZ7woZxt2ZBBR1-137" target="vwh4TKMZ7woZxt2ZBBR1-124" edge="1">
          <mxGeometry relative="1" as="geometry" />
        </mxCell>
        <mxCell id="vwh4TKMZ7woZxt2ZBBR1-141" value="m" style="edgeLabel;html=1;align=center;verticalAlign=middle;resizable=0;points=[];fontSize=12;fontFamily=Helvetica;fontColor=default;fontStyle=1" parent="vwh4TKMZ7woZxt2ZBBR1-139" vertex="1" connectable="0">
          <mxGeometry x="-0.6586" y="-1" relative="1" as="geometry">
            <mxPoint as="offset" />
          </mxGeometry>
        </mxCell>
        <mxCell id="vwh4TKMZ7woZxt2ZBBR1-137" value="has" style="rhombus;whiteSpace=wrap;html=1;rounded=1;strokeColor=#b85450;strokeWidth=2;align=center;verticalAlign=middle;fontFamily=Helvetica;fontSize=12;fontColor=default;fillColor=#f8cecc;fontStyle=1" parent="1" vertex="1">
          <mxGeometry x="1585" y="1650" width="80" height="80" as="geometry" />
        </mxCell>
        <mxCell id="vwh4TKMZ7woZxt2ZBBR1-147" value="&lt;u&gt;a_id&lt;/u&gt;" style="rounded=1;whiteSpace=wrap;html=1;arcSize=60;strokeColor=#82b366;strokeWidth=2;align=center;verticalAlign=middle;fontFamily=Helvetica;fontSize=12;fontColor=default;fillColor=#d5e8d4;fontStyle=1" parent="1" vertex="1">
          <mxGeometry x="1075" y="2420" width="120" height="60" as="geometry" />
        </mxCell>
        <mxCell id="vwh4TKMZ7woZxt2ZBBR1-148" value="a_name" style="rounded=1;whiteSpace=wrap;html=1;arcSize=60;strokeColor=#82b366;strokeWidth=2;align=center;verticalAlign=middle;fontFamily=Helvetica;fontSize=12;fontColor=default;fillColor=#d5e8d4;fontStyle=1" parent="1" vertex="1">
          <mxGeometry x="1075" y="2330" width="120" height="60" as="geometry" />
        </mxCell>
        <mxCell id="vwh4TKMZ7woZxt2ZBBR1-149" value="a_website" style="rounded=1;whiteSpace=wrap;html=1;arcSize=60;strokeColor=#82b366;strokeWidth=2;align=center;verticalAlign=middle;fontFamily=Helvetica;fontSize=12;fontColor=default;fillColor=#d5e8d4;fontStyle=1" parent="1" vertex="1">
          <mxGeometry x="1075" y="2240" width="120" height="60" as="geometry" />
        </mxCell>
        <mxCell id="vwh4TKMZ7woZxt2ZBBR1-156" style="edgeStyle=elbowEdgeStyle;shape=connector;rounded=0;orthogonalLoop=1;jettySize=auto;html=1;labelBackgroundColor=default;strokeColor=default;strokeWidth=2;align=center;verticalAlign=middle;fontFamily=Helvetica;fontSize=12;fontColor=default;endArrow=none;endFill=0;fontStyle=1" parent="1" source="vwh4TKMZ7woZxt2ZBBR1-153" target="vwh4TKMZ7woZxt2ZBBR1-123" edge="1">
          <mxGeometry relative="1" as="geometry" />
        </mxCell>
        <mxCell id="vwh4TKMZ7woZxt2ZBBR1-153" value="&lt;u&gt;p_id&lt;/u&gt;" style="rounded=1;whiteSpace=wrap;html=1;arcSize=60;strokeColor=#82b366;strokeWidth=2;align=center;verticalAlign=middle;fontFamily=Helvetica;fontSize=12;fontColor=default;fillColor=#d5e8d4;fontStyle=1" parent="1" vertex="1">
          <mxGeometry x="1075" y="2090" width="120" height="60" as="geometry" />
        </mxCell>
        <mxCell id="vwh4TKMZ7woZxt2ZBBR1-157" style="edgeStyle=elbowEdgeStyle;shape=connector;rounded=0;orthogonalLoop=1;jettySize=auto;html=1;labelBackgroundColor=default;strokeColor=default;strokeWidth=2;align=center;verticalAlign=middle;fontFamily=Helvetica;fontSize=12;fontColor=default;endArrow=none;endFill=0;fontStyle=1" parent="1" source="vwh4TKMZ7woZxt2ZBBR1-154" target="vwh4TKMZ7woZxt2ZBBR1-123" edge="1">
          <mxGeometry relative="1" as="geometry" />
        </mxCell>
        <mxCell id="vwh4TKMZ7woZxt2ZBBR1-154" value="p_name" style="rounded=1;whiteSpace=wrap;html=1;arcSize=60;strokeColor=#82b366;strokeWidth=2;align=center;verticalAlign=middle;fontFamily=Helvetica;fontSize=12;fontColor=default;fillColor=#d5e8d4;fontStyle=1" parent="1" vertex="1">
          <mxGeometry x="1075" y="2010" width="120" height="60" as="geometry" />
        </mxCell>
        <mxCell id="vwh4TKMZ7woZxt2ZBBR1-158" style="edgeStyle=elbowEdgeStyle;shape=connector;rounded=0;orthogonalLoop=1;jettySize=auto;html=1;labelBackgroundColor=default;strokeColor=default;strokeWidth=2;align=center;verticalAlign=middle;fontFamily=Helvetica;fontSize=12;fontColor=default;endArrow=none;endFill=0;fontStyle=1" parent="1" source="vwh4TKMZ7woZxt2ZBBR1-155" target="vwh4TKMZ7woZxt2ZBBR1-123" edge="1">
          <mxGeometry relative="1" as="geometry" />
        </mxCell>
        <mxCell id="vwh4TKMZ7woZxt2ZBBR1-155" value="p_website" style="rounded=1;whiteSpace=wrap;html=1;arcSize=60;strokeColor=#82b366;strokeWidth=2;align=center;verticalAlign=middle;fontFamily=Helvetica;fontSize=12;fontColor=default;fillColor=#d5e8d4;fontStyle=1" parent="1" vertex="1">
          <mxGeometry x="1075" y="1930" width="120" height="60" as="geometry" />
        </mxCell>
        <mxCell id="vwh4TKMZ7woZxt2ZBBR1-159" value="&lt;u&gt;c_id&lt;/u&gt;" style="rounded=1;whiteSpace=wrap;html=1;arcSize=60;strokeColor=#82b366;strokeWidth=2;align=center;verticalAlign=middle;fontFamily=Helvetica;fontSize=12;fontColor=default;fillColor=#d5e8d4;fontStyle=1" parent="1" vertex="1">
          <mxGeometry x="1075" y="1770" width="120" height="60" as="geometry" />
        </mxCell>
        <mxCell id="vwh4TKMZ7woZxt2ZBBR1-160" value="c_name" style="rounded=1;whiteSpace=wrap;html=1;arcSize=60;strokeColor=#82b366;strokeWidth=2;align=center;verticalAlign=middle;fontFamily=Helvetica;fontSize=12;fontColor=default;fillColor=#d5e8d4;fontStyle=1" parent="1" vertex="1">
          <mxGeometry x="1075" y="1690" width="120" height="60" as="geometry" />
        </mxCell>
        <mxCell id="vwh4TKMZ7woZxt2ZBBR1-175" style="edgeStyle=elbowEdgeStyle;shape=connector;rounded=0;orthogonalLoop=1;jettySize=auto;html=1;labelBackgroundColor=default;strokeColor=default;strokeWidth=2;align=center;verticalAlign=middle;fontFamily=Helvetica;fontSize=12;fontColor=default;endArrow=none;endFill=0;elbow=vertical;fontStyle=1;entryX=0.75;entryY=1;entryDx=0;entryDy=0;" parent="1" source="vwh4TKMZ7woZxt2ZBBR1-174" target="vwh4TKMZ7woZxt2ZBBR1-2" edge="1">
          <mxGeometry relative="1" as="geometry" />
        </mxCell>
        <mxCell id="vwh4TKMZ7woZxt2ZBBR1-187" value="m" style="edgeLabel;html=1;align=center;verticalAlign=middle;resizable=0;points=[];fontSize=12;fontFamily=Helvetica;fontColor=default;fontStyle=1" parent="vwh4TKMZ7woZxt2ZBBR1-175" vertex="1" connectable="0">
          <mxGeometry x="-0.9471" y="1" relative="1" as="geometry">
            <mxPoint as="offset" />
          </mxGeometry>
        </mxCell>
        <mxCell id="vwh4TKMZ7woZxt2ZBBR1-176" style="edgeStyle=elbowEdgeStyle;shape=connector;rounded=0;orthogonalLoop=1;jettySize=auto;html=1;labelBackgroundColor=default;strokeColor=default;strokeWidth=2;align=center;verticalAlign=middle;fontFamily=Helvetica;fontSize=12;fontColor=default;endArrow=none;endFill=0;elbow=vertical;fontStyle=1" parent="1" source="vwh4TKMZ7woZxt2ZBBR1-174" target="vwh4TKMZ7woZxt2ZBBR1-32" edge="1">
          <mxGeometry relative="1" as="geometry" />
        </mxCell>
        <mxCell id="vwh4TKMZ7woZxt2ZBBR1-186" value="n" style="edgeLabel;html=1;align=center;verticalAlign=middle;resizable=0;points=[];fontSize=12;fontFamily=Helvetica;fontColor=default;fontStyle=1" parent="vwh4TKMZ7woZxt2ZBBR1-176" vertex="1" connectable="0">
          <mxGeometry x="-0.9126" y="-2" relative="1" as="geometry">
            <mxPoint as="offset" />
          </mxGeometry>
        </mxCell>
        <mxCell id="vwh4TKMZ7woZxt2ZBBR1-174" value="&lt;span&gt;rate&lt;/span&gt;" style="rhombus;whiteSpace=wrap;html=1;rounded=1;strokeColor=#b85450;strokeWidth=2;align=center;verticalAlign=middle;fontFamily=Helvetica;fontSize=12;fontColor=default;fillColor=#f8cecc;fontStyle=1" parent="1" vertex="1">
          <mxGeometry x="2155" y="1630" width="80" height="80" as="geometry" />
        </mxCell>
        <mxCell id="vwh4TKMZ7woZxt2ZBBR1-185" style="edgeStyle=elbowEdgeStyle;shape=connector;rounded=0;orthogonalLoop=1;jettySize=auto;html=1;labelBackgroundColor=default;strokeColor=default;strokeWidth=2;align=center;verticalAlign=middle;fontFamily=Helvetica;fontSize=12;fontColor=default;endArrow=none;endFill=0;fontStyle=1" parent="1" source="vwh4TKMZ7woZxt2ZBBR1-177" target="vwh4TKMZ7woZxt2ZBBR1-174" edge="1">
          <mxGeometry relative="1" as="geometry" />
        </mxCell>
        <mxCell id="vwh4TKMZ7woZxt2ZBBR1-177" value="&lt;u&gt;r_id&lt;/u&gt;" style="rounded=1;whiteSpace=wrap;html=1;arcSize=60;strokeColor=#82b366;strokeWidth=2;align=center;verticalAlign=middle;fontFamily=Helvetica;fontSize=12;fontColor=default;fillColor=#d5e8d4;fontStyle=1" parent="1" vertex="1">
          <mxGeometry x="1945" y="1550" width="120" height="60" as="geometry" />
        </mxCell>
        <mxCell id="vwh4TKMZ7woZxt2ZBBR1-182" style="edgeStyle=elbowEdgeStyle;shape=connector;rounded=0;orthogonalLoop=1;jettySize=auto;html=1;labelBackgroundColor=default;strokeColor=default;strokeWidth=2;align=center;verticalAlign=middle;fontFamily=Helvetica;fontSize=12;fontColor=default;endArrow=none;endFill=0;fontStyle=1" parent="1" source="vwh4TKMZ7woZxt2ZBBR1-179" target="vwh4TKMZ7woZxt2ZBBR1-174" edge="1">
          <mxGeometry relative="1" as="geometry" />
        </mxCell>
        <mxCell id="vwh4TKMZ7woZxt2ZBBR1-179" value="r_value" style="rounded=1;whiteSpace=wrap;html=1;arcSize=60;strokeColor=#82b366;strokeWidth=2;align=center;verticalAlign=middle;fontFamily=Helvetica;fontSize=12;fontColor=default;fillColor=#d5e8d4;fontStyle=1" parent="1" vertex="1">
          <mxGeometry x="1945" y="1640" width="120" height="60" as="geometry" />
        </mxCell>
        <mxCell id="vwh4TKMZ7woZxt2ZBBR1-183" style="edgeStyle=elbowEdgeStyle;shape=connector;rounded=0;orthogonalLoop=1;jettySize=auto;html=1;labelBackgroundColor=default;strokeColor=default;strokeWidth=2;align=center;verticalAlign=middle;fontFamily=Helvetica;fontSize=12;fontColor=default;endArrow=none;endFill=0;fontStyle=1" parent="1" source="vwh4TKMZ7woZxt2ZBBR1-180" target="vwh4TKMZ7woZxt2ZBBR1-174" edge="1">
          <mxGeometry relative="1" as="geometry" />
        </mxCell>
        <mxCell id="vwh4TKMZ7woZxt2ZBBR1-180" value="r_date" style="rounded=1;whiteSpace=wrap;html=1;arcSize=60;strokeColor=#82b366;strokeWidth=2;align=center;verticalAlign=middle;fontFamily=Helvetica;fontSize=12;fontColor=default;fillColor=#d5e8d4;fontStyle=1" parent="1" vertex="1">
          <mxGeometry x="1945" y="1730" width="120" height="60" as="geometry" />
        </mxCell>
        <mxCell id="vwh4TKMZ7woZxt2ZBBR1-184" style="edgeStyle=elbowEdgeStyle;shape=connector;rounded=0;orthogonalLoop=1;jettySize=auto;html=1;labelBackgroundColor=default;strokeColor=default;strokeWidth=2;align=center;verticalAlign=middle;fontFamily=Helvetica;fontSize=12;fontColor=default;endArrow=none;endFill=0;fontStyle=1" parent="1" source="vwh4TKMZ7woZxt2ZBBR1-181" target="vwh4TKMZ7woZxt2ZBBR1-174" edge="1">
          <mxGeometry relative="1" as="geometry" />
        </mxCell>
        <mxCell id="vwh4TKMZ7woZxt2ZBBR1-181" value="r_comment" style="rounded=1;whiteSpace=wrap;html=1;arcSize=60;strokeColor=#82b366;strokeWidth=2;align=center;verticalAlign=middle;fontFamily=Helvetica;fontSize=12;fontColor=default;fillColor=#d5e8d4;fontStyle=1" parent="1" vertex="1">
          <mxGeometry x="1945" y="1810" width="120" height="60" as="geometry" />
        </mxCell>
        <mxCell id="vwh4TKMZ7woZxt2ZBBR1-194" style="edgeStyle=elbowEdgeStyle;shape=connector;rounded=0;orthogonalLoop=1;jettySize=auto;html=1;labelBackgroundColor=default;strokeColor=default;strokeWidth=2;align=center;verticalAlign=middle;fontFamily=Helvetica;fontSize=12;fontColor=default;endArrow=none;endFill=0;elbow=vertical;fontStyle=1;entryX=0.25;entryY=1;entryDx=0;entryDy=0;" parent="1" source="vwh4TKMZ7woZxt2ZBBR1-188" target="vwh4TKMZ7woZxt2ZBBR1-2" edge="1">
          <mxGeometry relative="1" as="geometry" />
        </mxCell>
        <mxCell id="vwh4TKMZ7woZxt2ZBBR1-198" value="m" style="edgeLabel;html=1;align=center;verticalAlign=middle;resizable=0;points=[];fontSize=12;fontFamily=Helvetica;fontColor=default;fontStyle=1" parent="vwh4TKMZ7woZxt2ZBBR1-194" vertex="1" connectable="0">
          <mxGeometry x="-0.9508" y="1" relative="1" as="geometry">
            <mxPoint as="offset" />
          </mxGeometry>
        </mxCell>
        <mxCell id="vwh4TKMZ7woZxt2ZBBR1-195" style="edgeStyle=elbowEdgeStyle;shape=connector;rounded=0;orthogonalLoop=1;jettySize=auto;html=1;labelBackgroundColor=default;strokeColor=default;strokeWidth=2;align=center;verticalAlign=middle;fontFamily=Helvetica;fontSize=12;fontColor=default;endArrow=none;endFill=0;elbow=vertical;fontStyle=1" parent="1" source="vwh4TKMZ7woZxt2ZBBR1-188" target="vwh4TKMZ7woZxt2ZBBR1-32" edge="1">
          <mxGeometry relative="1" as="geometry" />
        </mxCell>
        <mxCell id="vwh4TKMZ7woZxt2ZBBR1-197" value="n" style="edgeLabel;html=1;align=center;verticalAlign=middle;resizable=0;points=[];fontSize=12;fontFamily=Helvetica;fontColor=default;fontStyle=1" parent="vwh4TKMZ7woZxt2ZBBR1-195" vertex="1" connectable="0">
          <mxGeometry x="-0.9026" y="1" relative="1" as="geometry">
            <mxPoint as="offset" />
          </mxGeometry>
        </mxCell>
        <mxCell id="vwh4TKMZ7woZxt2ZBBR1-188" value="&lt;span&gt;&lt;font style=&quot;font-size: 11px;&quot;&gt;already_read&lt;/font&gt;&lt;/span&gt;" style="rhombus;whiteSpace=wrap;html=1;rounded=1;strokeColor=#b85450;strokeWidth=2;align=center;verticalAlign=middle;fontFamily=Helvetica;fontSize=12;fontColor=default;fillColor=#f8cecc;fontStyle=1" parent="1" vertex="1">
          <mxGeometry x="2255" y="1630" width="80" height="80" as="geometry" />
        </mxCell>
        <mxCell id="vwh4TKMZ7woZxt2ZBBR1-193" style="edgeStyle=elbowEdgeStyle;shape=connector;rounded=0;orthogonalLoop=1;jettySize=auto;html=1;labelBackgroundColor=default;strokeColor=default;strokeWidth=2;align=center;verticalAlign=middle;fontFamily=Helvetica;fontSize=12;fontColor=default;endArrow=none;endFill=0;elbow=vertical;fontStyle=1;entryX=0.25;entryY=1;entryDx=0;entryDy=0;" parent="1" source="vwh4TKMZ7woZxt2ZBBR1-189" target="vwh4TKMZ7woZxt2ZBBR1-2" edge="1">
          <mxGeometry relative="1" as="geometry" />
        </mxCell>
        <mxCell id="vwh4TKMZ7woZxt2ZBBR1-200" value="m" style="edgeLabel;html=1;align=center;verticalAlign=middle;resizable=0;points=[];fontSize=12;fontFamily=Helvetica;fontColor=default;fontStyle=1" parent="vwh4TKMZ7woZxt2ZBBR1-193" vertex="1" connectable="0">
          <mxGeometry x="-0.9393" y="-1" relative="1" as="geometry">
            <mxPoint as="offset" />
          </mxGeometry>
        </mxCell>
        <mxCell id="vwh4TKMZ7woZxt2ZBBR1-196" style="edgeStyle=elbowEdgeStyle;shape=connector;rounded=0;orthogonalLoop=1;jettySize=auto;html=1;labelBackgroundColor=default;strokeColor=default;strokeWidth=2;align=center;verticalAlign=middle;fontFamily=Helvetica;fontSize=12;fontColor=default;endArrow=none;endFill=0;elbow=vertical;fontStyle=1" parent="1" source="vwh4TKMZ7woZxt2ZBBR1-189" target="vwh4TKMZ7woZxt2ZBBR1-32" edge="1">
          <mxGeometry relative="1" as="geometry" />
        </mxCell>
        <mxCell id="vwh4TKMZ7woZxt2ZBBR1-199" value="n" style="edgeLabel;html=1;align=center;verticalAlign=middle;resizable=0;points=[];fontSize=12;fontFamily=Helvetica;fontColor=default;fontStyle=1" parent="vwh4TKMZ7woZxt2ZBBR1-196" vertex="1" connectable="0">
          <mxGeometry x="-0.9093" relative="1" as="geometry">
            <mxPoint as="offset" />
          </mxGeometry>
        </mxCell>
        <mxCell id="vwh4TKMZ7woZxt2ZBBR1-189" value="&lt;span&gt;&lt;font style=&quot;font-size: 11px;&quot;&gt;wishlist&lt;/font&gt;&lt;/span&gt;" style="rhombus;whiteSpace=wrap;html=1;rounded=1;strokeColor=#b85450;strokeWidth=2;align=center;verticalAlign=middle;fontFamily=Helvetica;fontSize=12;fontColor=default;fillColor=#f8cecc;fontStyle=1" parent="1" vertex="1">
          <mxGeometry x="2355" y="1630" width="80" height="80" as="geometry" />
        </mxCell>
        <mxCell id="vwh4TKMZ7woZxt2ZBBR1-191" style="edgeStyle=elbowEdgeStyle;shape=connector;rounded=0;orthogonalLoop=1;jettySize=auto;html=1;labelBackgroundColor=default;strokeColor=default;strokeWidth=2;align=center;verticalAlign=middle;fontFamily=Helvetica;fontSize=12;fontColor=default;endArrow=none;endFill=0;fontStyle=1;entryX=0.75;entryY=1;entryDx=0;entryDy=0;elbow=vertical;" parent="1" source="vwh4TKMZ7woZxt2ZBBR1-190" target="vwh4TKMZ7woZxt2ZBBR1-2" edge="1">
          <mxGeometry relative="1" as="geometry">
            <mxPoint x="2850" y="1260" as="targetPoint" />
          </mxGeometry>
        </mxCell>
        <mxCell id="vwh4TKMZ7woZxt2ZBBR1-202" value="m" style="edgeLabel;html=1;align=center;verticalAlign=middle;resizable=0;points=[];fontSize=12;fontFamily=Helvetica;fontColor=default;fontStyle=1" parent="vwh4TKMZ7woZxt2ZBBR1-191" vertex="1" connectable="0">
          <mxGeometry x="-0.6137" relative="1" as="geometry">
            <mxPoint x="-5" y="124" as="offset" />
          </mxGeometry>
        </mxCell>
        <mxCell id="vwh4TKMZ7woZxt2ZBBR1-190" value="&lt;span&gt;&lt;font style=&quot;font-size: 11px;&quot;&gt;on_going&lt;/font&gt;&lt;/span&gt;" style="rhombus;whiteSpace=wrap;html=1;rounded=1;strokeColor=#b85450;strokeWidth=2;align=center;verticalAlign=middle;fontFamily=Helvetica;fontSize=12;fontColor=default;fillColor=#f8cecc;fontStyle=1" parent="1" vertex="1">
          <mxGeometry x="2460" y="1630" width="80" height="80" as="geometry" />
        </mxCell>
        <mxCell id="kFTq58JWY-k5Mvv4dJJF-2" style="edgeStyle=orthogonalEdgeStyle;rounded=0;orthogonalLoop=1;jettySize=auto;html=1;endArrow=none;endFill=0;strokeWidth=2;fontStyle=1;entryX=0.875;entryY=1;entryDx=0;entryDy=0;entryPerimeter=0;" parent="1" source="kFTq58JWY-k5Mvv4dJJF-1" target="vwh4TKMZ7woZxt2ZBBR1-2" edge="1">
          <mxGeometry relative="1" as="geometry" />
        </mxCell>
        <mxCell id="kFTq58JWY-k5Mvv4dJJF-5" value="m" style="edgeLabel;html=1;align=center;verticalAlign=middle;resizable=0;points=[];fontSize=11;fontFamily=Helvetica;fontColor=default;fontStyle=1" parent="kFTq58JWY-k5Mvv4dJJF-2" vertex="1" connectable="0">
          <mxGeometry x="-0.9638" y="-1" relative="1" as="geometry">
            <mxPoint y="-2" as="offset" />
          </mxGeometry>
        </mxCell>
        <mxCell id="kFTq58JWY-k5Mvv4dJJF-3" style="edgeStyle=orthogonalEdgeStyle;rounded=0;orthogonalLoop=1;jettySize=auto;html=1;endArrow=none;endFill=0;shape=link;strokeWidth=2;fontStyle=1" parent="1" source="kFTq58JWY-k5Mvv4dJJF-1" target="vwh4TKMZ7woZxt2ZBBR1-122" edge="1">
          <mxGeometry relative="1" as="geometry" />
        </mxCell>
        <mxCell id="kFTq58JWY-k5Mvv4dJJF-4" value="n" style="edgeLabel;html=1;align=center;verticalAlign=middle;resizable=0;points=[];fontSize=11;fontFamily=Helvetica;fontColor=default;fontStyle=1" parent="kFTq58JWY-k5Mvv4dJJF-3" vertex="1" connectable="0">
          <mxGeometry x="-0.9296" y="-1" relative="1" as="geometry">
            <mxPoint as="offset" />
          </mxGeometry>
        </mxCell>
        <mxCell id="kFTq58JWY-k5Mvv4dJJF-1" value="&lt;font style=&quot;font-size: 10px;&quot;&gt;follow&lt;/font&gt;" style="rhombus;whiteSpace=wrap;html=1;rounded=1;strokeColor=#b85450;strokeWidth=2;align=center;verticalAlign=middle;fontFamily=Helvetica;fontSize=12;fontColor=default;fillColor=#f8cecc;fontStyle=1" parent="1" vertex="1">
          <mxGeometry x="2295" y="1940" width="80" height="80" as="geometry" />
        </mxCell>
        <mxCell id="Puczav_mlAhpV0eRWNq6-2" style="edgeStyle=elbowEdgeStyle;rounded=0;orthogonalLoop=1;jettySize=auto;html=1;endArrow=none;endFill=0;strokeWidth=2;elbow=vertical;fontStyle=1" parent="1" source="Puczav_mlAhpV0eRWNq6-1" target="vwh4TKMZ7woZxt2ZBBR1-32" edge="1">
          <mxGeometry relative="1" as="geometry" />
        </mxCell>
        <mxCell id="Puczav_mlAhpV0eRWNq6-1" value="m_description" style="rounded=1;whiteSpace=wrap;html=1;arcSize=60;strokeColor=#82b366;strokeWidth=2;align=center;verticalAlign=middle;fontFamily=Helvetica;fontSize=12;fontColor=default;fillColor=#d5e8d4;fontStyle=1" parent="1" vertex="1">
          <mxGeometry x="2225" y="2290" width="120" height="60" as="geometry" />
        </mxCell>
        <mxCell id="Puczav_mlAhpV0eRWNq6-3" style="edgeStyle=orthogonalEdgeStyle;shape=connector;rounded=0;orthogonalLoop=1;jettySize=auto;html=1;labelBackgroundColor=default;strokeColor=default;strokeWidth=2;align=center;verticalAlign=middle;fontFamily=Helvetica;fontSize=12;fontColor=default;endArrow=none;endFill=0;fontStyle=1" parent="1" source="Puczav_mlAhpV0eRWNq6-5" target="Puczav_mlAhpV0eRWNq6-6" edge="1">
          <mxGeometry relative="1" as="geometry" />
        </mxCell>
        <mxCell id="Puczav_mlAhpV0eRWNq6-4" style="edgeStyle=orthogonalEdgeStyle;shape=connector;rounded=0;orthogonalLoop=1;jettySize=auto;html=1;labelBackgroundColor=default;strokeColor=default;strokeWidth=2;align=center;verticalAlign=middle;fontFamily=Helvetica;fontSize=12;fontColor=default;endArrow=none;endFill=0;fontStyle=1" parent="1" source="Puczav_mlAhpV0eRWNq6-5" target="Puczav_mlAhpV0eRWNq6-7" edge="1">
          <mxGeometry relative="1" as="geometry" />
        </mxCell>
        <mxCell id="Puczav_mlAhpV0eRWNq6-33" style="edgeStyle=orthogonalEdgeStyle;shape=connector;rounded=0;orthogonalLoop=1;jettySize=auto;html=1;labelBackgroundColor=default;strokeColor=default;strokeWidth=2;align=center;verticalAlign=middle;fontFamily=Helvetica;fontSize=11;fontColor=default;endArrow=none;endFill=0;fontStyle=1" parent="1" source="Puczav_mlAhpV0eRWNq6-5" target="Puczav_mlAhpV0eRWNq6-9" edge="1">
          <mxGeometry relative="1" as="geometry" />
        </mxCell>
        <mxCell id="Puczav_mlAhpV0eRWNq6-34" value="1" style="edgeLabel;html=1;align=center;verticalAlign=middle;resizable=0;points=[];fontSize=11;fontFamily=Helvetica;fontColor=default;fontStyle=1" parent="Puczav_mlAhpV0eRWNq6-33" vertex="1" connectable="0">
          <mxGeometry x="-0.0414" y="-2" relative="1" as="geometry">
            <mxPoint as="offset" />
          </mxGeometry>
        </mxCell>
        <mxCell id="Puczav_mlAhpV0eRWNq6-5" value="&lt;font style=&quot;font-size: 16px;&quot;&gt;&lt;span&gt;author_picture&lt;/span&gt;&lt;/font&gt;" style="rounded=1;whiteSpace=wrap;html=1;fillColor=#dae8fc;strokeColor=#6c8ebf;strokeWidth=2;fontStyle=1" parent="1" vertex="1">
          <mxGeometry x="1317.5" y="2300" width="120" height="60" as="geometry" />
        </mxCell>
        <mxCell id="Puczav_mlAhpV0eRWNq6-6" value="&lt;u&gt;ap_id&lt;/u&gt;" style="rounded=1;whiteSpace=wrap;html=1;arcSize=60;strokeColor=#82b366;strokeWidth=2;align=center;verticalAlign=middle;fontFamily=Helvetica;fontSize=12;fontColor=default;fillColor=#d5e8d4;fontStyle=1" parent="1" vertex="1">
          <mxGeometry x="1250" y="2430" width="120" height="60" as="geometry" />
        </mxCell>
        <mxCell id="Puczav_mlAhpV0eRWNq6-7" value="ap_picture" style="rounded=1;whiteSpace=wrap;html=1;arcSize=60;strokeColor=#82b366;strokeWidth=2;align=center;verticalAlign=middle;fontFamily=Helvetica;fontSize=12;fontColor=default;fillColor=#d5e8d4;fontStyle=1" parent="1" vertex="1">
          <mxGeometry x="1385" y="2430" width="120" height="60" as="geometry" />
        </mxCell>
        <mxCell id="Puczav_mlAhpV0eRWNq6-10" style="edgeStyle=orthogonalEdgeStyle;rounded=0;orthogonalLoop=1;jettySize=auto;html=1;endArrow=none;endFill=0;strokeWidth=2;fontStyle=1" parent="1" source="Puczav_mlAhpV0eRWNq6-9" target="vwh4TKMZ7woZxt2ZBBR1-122" edge="1">
          <mxGeometry relative="1" as="geometry" />
        </mxCell>
        <mxCell id="Puczav_mlAhpV0eRWNq6-13" value="1" style="edgeLabel;html=1;align=center;verticalAlign=middle;resizable=0;points=[];fontSize=11;fontFamily=Helvetica;fontColor=default;fontStyle=1" parent="Puczav_mlAhpV0eRWNq6-10" vertex="1" connectable="0">
          <mxGeometry x="0.3116" relative="1" as="geometry">
            <mxPoint as="offset" />
          </mxGeometry>
        </mxCell>
        <mxCell id="Puczav_mlAhpV0eRWNq6-9" value="has" style="rhombus;whiteSpace=wrap;html=1;rounded=1;strokeColor=#b85450;strokeWidth=2;align=center;verticalAlign=middle;fontFamily=Helvetica;fontSize=12;fontColor=default;fillColor=#f8cecc;fontStyle=1" parent="1" vertex="1">
          <mxGeometry x="1295" y="2190" width="80" height="80" as="geometry" />
        </mxCell>
        <mxCell id="Puczav_mlAhpV0eRWNq6-21" style="edgeStyle=orthogonalEdgeStyle;shape=connector;rounded=0;orthogonalLoop=1;jettySize=auto;html=1;labelBackgroundColor=default;strokeColor=default;strokeWidth=2;align=center;verticalAlign=middle;fontFamily=Helvetica;fontSize=12;fontColor=default;endArrow=none;endFill=0;fontStyle=1" parent="1" source="Puczav_mlAhpV0eRWNq6-23" target="Puczav_mlAhpV0eRWNq6-24" edge="1">
          <mxGeometry relative="1" as="geometry" />
        </mxCell>
        <mxCell id="Puczav_mlAhpV0eRWNq6-22" style="edgeStyle=orthogonalEdgeStyle;shape=connector;rounded=0;orthogonalLoop=1;jettySize=auto;html=1;labelBackgroundColor=default;strokeColor=default;strokeWidth=2;align=center;verticalAlign=middle;fontFamily=Helvetica;fontSize=12;fontColor=default;endArrow=none;endFill=0;fontStyle=1" parent="1" source="Puczav_mlAhpV0eRWNq6-23" target="Puczav_mlAhpV0eRWNq6-25" edge="1">
          <mxGeometry relative="1" as="geometry" />
        </mxCell>
        <mxCell id="Puczav_mlAhpV0eRWNq6-23" value="&lt;font style=&quot;font-size: 13px;&quot;&gt;publisher_picture&lt;/font&gt;" style="rounded=1;whiteSpace=wrap;html=1;fillColor=#dae8fc;strokeColor=#6c8ebf;strokeWidth=2;fontStyle=1" parent="1" vertex="1">
          <mxGeometry x="857.5" y="2030" width="120" height="60" as="geometry" />
        </mxCell>
        <mxCell id="Puczav_mlAhpV0eRWNq6-24" value="&lt;u&gt;pp_id&lt;/u&gt;" style="rounded=1;whiteSpace=wrap;html=1;arcSize=60;strokeColor=#82b366;strokeWidth=2;align=center;verticalAlign=middle;fontFamily=Helvetica;fontSize=12;fontColor=default;fillColor=#d5e8d4;fontStyle=1" parent="1" vertex="1">
          <mxGeometry x="790" y="2160" width="120" height="60" as="geometry" />
        </mxCell>
        <mxCell id="Puczav_mlAhpV0eRWNq6-25" value="pp_picture" style="rounded=1;whiteSpace=wrap;html=1;arcSize=60;strokeColor=#82b366;strokeWidth=2;align=center;verticalAlign=middle;fontFamily=Helvetica;fontSize=12;fontColor=default;fillColor=#d5e8d4;fontStyle=1" parent="1" vertex="1">
          <mxGeometry x="925" y="2160" width="120" height="60" as="geometry" />
        </mxCell>
        <mxCell id="Puczav_mlAhpV0eRWNq6-28" style="edgeStyle=orthogonalEdgeStyle;shape=connector;rounded=0;orthogonalLoop=1;jettySize=auto;html=1;labelBackgroundColor=default;strokeColor=default;strokeWidth=2;align=center;verticalAlign=middle;fontFamily=Helvetica;fontSize=11;fontColor=default;endArrow=none;endFill=0;fontStyle=1" parent="1" source="Puczav_mlAhpV0eRWNq6-26" target="Puczav_mlAhpV0eRWNq6-23" edge="1">
          <mxGeometry relative="1" as="geometry" />
        </mxCell>
        <mxCell id="Puczav_mlAhpV0eRWNq6-30" value="1" style="edgeLabel;html=1;align=center;verticalAlign=middle;resizable=0;points=[];fontSize=11;fontFamily=Helvetica;fontColor=default;fontStyle=1" parent="Puczav_mlAhpV0eRWNq6-28" vertex="1" connectable="0">
          <mxGeometry x="-0.4745" y="1" relative="1" as="geometry">
            <mxPoint as="offset" />
          </mxGeometry>
        </mxCell>
        <mxCell id="Puczav_mlAhpV0eRWNq6-26" value="has" style="rhombus;whiteSpace=wrap;html=1;rounded=1;strokeColor=#b85450;strokeWidth=2;align=center;verticalAlign=middle;fontFamily=Helvetica;fontSize=12;fontColor=default;fillColor=#f8cecc;fontStyle=1" parent="1" vertex="1">
          <mxGeometry x="877.5" y="1880" width="80" height="80" as="geometry" />
        </mxCell>
        <mxCell id="Puczav_mlAhpV0eRWNq6-31" value="a_description" style="rounded=1;whiteSpace=wrap;html=1;arcSize=60;strokeColor=#82b366;strokeWidth=2;align=center;verticalAlign=middle;fontFamily=Helvetica;fontSize=12;fontColor=default;fillColor=#d5e8d4;fontStyle=1" parent="1" vertex="1">
          <mxGeometry x="1075" y="2160" width="120" height="60" as="geometry" />
        </mxCell>
        <mxCell id="Puczav_mlAhpV0eRWNq6-37" style="edgeStyle=orthogonalEdgeStyle;shape=connector;rounded=0;orthogonalLoop=1;jettySize=auto;html=1;labelBackgroundColor=default;strokeColor=default;strokeWidth=2;align=center;verticalAlign=middle;fontFamily=Helvetica;fontSize=11;fontColor=default;endArrow=none;endFill=0;fontStyle=1" parent="1" source="Puczav_mlAhpV0eRWNq6-36" target="vwh4TKMZ7woZxt2ZBBR1-123" edge="1">
          <mxGeometry relative="1" as="geometry" />
        </mxCell>
        <mxCell id="Puczav_mlAhpV0eRWNq6-36" value="p_description" style="rounded=1;whiteSpace=wrap;html=1;arcSize=60;strokeColor=#82b366;strokeWidth=2;align=center;verticalAlign=middle;fontFamily=Helvetica;fontSize=12;fontColor=default;fillColor=#d5e8d4;fontStyle=1" parent="1" vertex="1">
          <mxGeometry x="1075" y="1850" width="120" height="60" as="geometry" />
        </mxCell>
        <mxCell id="-6IDkBmVgf6BlsOlDVBG-1" style="edgeStyle=orthogonalEdgeStyle;shape=connector;rounded=0;orthogonalLoop=1;jettySize=auto;html=1;labelBackgroundColor=default;strokeColor=default;strokeWidth=2;align=center;verticalAlign=middle;fontFamily=Helvetica;fontSize=12;fontColor=default;endArrow=none;endFill=0;fontStyle=1" parent="1" source="-6IDkBmVgf6BlsOlDVBG-3" target="-6IDkBmVgf6BlsOlDVBG-4" edge="1">
          <mxGeometry relative="1" as="geometry" />
        </mxCell>
        <mxCell id="-6IDkBmVgf6BlsOlDVBG-2" style="edgeStyle=orthogonalEdgeStyle;shape=connector;rounded=0;orthogonalLoop=1;jettySize=auto;html=1;labelBackgroundColor=default;strokeColor=default;strokeWidth=2;align=center;verticalAlign=middle;fontFamily=Helvetica;fontSize=12;fontColor=default;endArrow=none;endFill=0;fontStyle=1" parent="1" source="-6IDkBmVgf6BlsOlDVBG-3" target="-6IDkBmVgf6BlsOlDVBG-5" edge="1">
          <mxGeometry relative="1" as="geometry" />
        </mxCell>
        <mxCell id="-6IDkBmVgf6BlsOlDVBG-3" value="&lt;font style=&quot;font-size: 16px;&quot;&gt;&lt;span&gt;manga_picture&lt;/span&gt;&lt;/font&gt;" style="rounded=1;whiteSpace=wrap;html=1;fillColor=#dae8fc;strokeColor=#6c8ebf;strokeWidth=2;fontStyle=1" parent="1" vertex="1">
          <mxGeometry x="1865" y="2490" width="120" height="60" as="geometry" />
        </mxCell>
        <mxCell id="-6IDkBmVgf6BlsOlDVBG-4" value="&lt;u&gt;mp_id&lt;/u&gt;" style="rounded=1;whiteSpace=wrap;html=1;arcSize=60;strokeColor=#82b366;strokeWidth=2;align=center;verticalAlign=middle;fontFamily=Helvetica;fontSize=12;fontColor=default;fillColor=#d5e8d4;fontStyle=1" parent="1" vertex="1">
          <mxGeometry x="1797.5" y="2620" width="120" height="60" as="geometry" />
        </mxCell>
        <mxCell id="-6IDkBmVgf6BlsOlDVBG-5" value="mp_picture" style="rounded=1;whiteSpace=wrap;html=1;arcSize=60;strokeColor=#82b366;strokeWidth=2;align=center;verticalAlign=middle;fontFamily=Helvetica;fontSize=12;fontColor=default;fillColor=#d5e8d4;fontStyle=1" parent="1" vertex="1">
          <mxGeometry x="1932.5" y="2620" width="120" height="60" as="geometry" />
        </mxCell>
        <mxCell id="-6IDkBmVgf6BlsOlDVBG-7" style="edgeStyle=orthogonalEdgeStyle;rounded=0;orthogonalLoop=1;jettySize=auto;html=1;endArrow=none;endFill=0;strokeWidth=2;" parent="1" source="-6IDkBmVgf6BlsOlDVBG-6" target="vwh4TKMZ7woZxt2ZBBR1-32" edge="1">
          <mxGeometry relative="1" as="geometry" />
        </mxCell>
        <mxCell id="-6IDkBmVgf6BlsOlDVBG-10" value="1" style="edgeLabel;html=1;align=center;verticalAlign=middle;resizable=0;points=[];fontSize=11;fontFamily=Helvetica;fontColor=default;" parent="-6IDkBmVgf6BlsOlDVBG-7" vertex="1" connectable="0">
          <mxGeometry x="-0.7871" relative="1" as="geometry">
            <mxPoint as="offset" />
          </mxGeometry>
        </mxCell>
        <mxCell id="-6IDkBmVgf6BlsOlDVBG-8" style="edgeStyle=orthogonalEdgeStyle;rounded=0;orthogonalLoop=1;jettySize=auto;html=1;strokeWidth=2;endArrow=none;endFill=0;" parent="1" source="-6IDkBmVgf6BlsOlDVBG-6" target="-6IDkBmVgf6BlsOlDVBG-3" edge="1">
          <mxGeometry relative="1" as="geometry" />
        </mxCell>
        <mxCell id="-6IDkBmVgf6BlsOlDVBG-9" value="1" style="edgeLabel;html=1;align=center;verticalAlign=middle;resizable=0;points=[];fontSize=11;fontFamily=Helvetica;fontColor=default;" parent="-6IDkBmVgf6BlsOlDVBG-8" vertex="1" connectable="0">
          <mxGeometry x="-0.3886" relative="1" as="geometry">
            <mxPoint as="offset" />
          </mxGeometry>
        </mxCell>
        <mxCell id="-6IDkBmVgf6BlsOlDVBG-6" value="has" style="rhombus;whiteSpace=wrap;html=1;rounded=1;strokeColor=#b85450;strokeWidth=2;align=center;verticalAlign=middle;fontFamily=Helvetica;fontSize=12;fontColor=default;fillColor=#f8cecc;fontStyle=1" parent="1" vertex="1">
          <mxGeometry x="1885" y="2360" width="80" height="80" as="geometry" />
        </mxCell>
        <mxCell id="-6IDkBmVgf6BlsOlDVBG-14" style="edgeStyle=elbowEdgeStyle;shape=connector;rounded=0;orthogonalLoop=1;jettySize=auto;html=1;labelBackgroundColor=default;strokeColor=default;strokeWidth=2;align=center;verticalAlign=middle;fontFamily=Helvetica;fontSize=11;fontColor=default;endArrow=none;endFill=0;elbow=vertical;" parent="1" source="-6IDkBmVgf6BlsOlDVBG-13" target="vwh4TKMZ7woZxt2ZBBR1-90" edge="1">
          <mxGeometry relative="1" as="geometry" />
        </mxCell>
        <mxCell id="-6IDkBmVgf6BlsOlDVBG-13" value="c_view" style="rounded=1;whiteSpace=wrap;html=1;arcSize=60;strokeColor=#82b366;strokeWidth=2;align=center;verticalAlign=middle;fontFamily=Helvetica;fontSize=12;fontColor=default;fillColor=#d5e8d4;fontStyle=1" parent="1" vertex="1">
          <mxGeometry x="3185" y="1840" width="120" height="60" as="geometry" />
        </mxCell>
        <mxCell id="-6IDkBmVgf6BlsOlDVBG-15" value="v_view" style="rounded=1;whiteSpace=wrap;html=1;arcSize=60;strokeColor=#82b366;strokeWidth=2;align=center;verticalAlign=middle;fontFamily=Helvetica;fontSize=12;fontColor=default;fillColor=#d5e8d4;fontStyle=1" parent="1" vertex="1">
          <mxGeometry x="2927.5" y="2290" width="120" height="60" as="geometry" />
        </mxCell>
        <mxCell id="a1k5OSG-ylio9a-eIY2H-2" style="edgeStyle=elbowEdgeStyle;shape=connector;rounded=0;orthogonalLoop=1;jettySize=auto;html=1;labelBackgroundColor=default;strokeColor=default;strokeWidth=2;align=center;verticalAlign=middle;fontFamily=Helvetica;fontSize=11;fontColor=default;endArrow=none;endFill=0;elbow=vertical;fontStyle=1" parent="1" source="a1k5OSG-ylio9a-eIY2H-5" target="a1k5OSG-ylio9a-eIY2H-9" edge="1">
          <mxGeometry relative="1" as="geometry" />
        </mxCell>
        <mxCell id="a1k5OSG-ylio9a-eIY2H-3" style="edgeStyle=elbowEdgeStyle;shape=connector;rounded=0;orthogonalLoop=1;jettySize=auto;html=1;labelBackgroundColor=default;strokeColor=default;strokeWidth=2;align=center;verticalAlign=middle;fontFamily=Helvetica;fontSize=11;fontColor=default;endArrow=none;endFill=0;elbow=vertical;fontStyle=1" parent="1" source="a1k5OSG-ylio9a-eIY2H-5" target="a1k5OSG-ylio9a-eIY2H-10" edge="1">
          <mxGeometry relative="1" as="geometry" />
        </mxCell>
        <mxCell id="a1k5OSG-ylio9a-eIY2H-4" style="edgeStyle=elbowEdgeStyle;shape=connector;rounded=0;orthogonalLoop=1;jettySize=auto;html=1;labelBackgroundColor=default;strokeColor=default;strokeWidth=2;align=center;verticalAlign=middle;fontFamily=Helvetica;fontSize=11;fontColor=default;endArrow=none;endFill=0;elbow=vertical;fontStyle=1" parent="1" source="a1k5OSG-ylio9a-eIY2H-5" target="a1k5OSG-ylio9a-eIY2H-11" edge="1">
          <mxGeometry relative="1" as="geometry" />
        </mxCell>
        <mxCell id="a1k5OSG-ylio9a-eIY2H-5" value="&lt;font style=&quot;font-size: 16px;&quot;&gt;&lt;span&gt;search_history&lt;/span&gt;&lt;/font&gt;" style="rounded=1;whiteSpace=wrap;html=1;fillColor=#dae8fc;strokeColor=#6c8ebf;strokeWidth=2;fontStyle=1" parent="1" vertex="1">
          <mxGeometry x="2210" y="1140" width="120" height="60" as="geometry" />
        </mxCell>
        <mxCell id="a1k5OSG-ylio9a-eIY2H-6" style="edgeStyle=orthogonalEdgeStyle;shape=link;rounded=0;orthogonalLoop=1;jettySize=auto;html=1;labelBackgroundColor=default;strokeColor=default;strokeWidth=2;align=center;verticalAlign=middle;fontFamily=Helvetica;fontSize=11;fontColor=default;endArrow=none;endFill=0;fontStyle=1" parent="1" source="a1k5OSG-ylio9a-eIY2H-8" target="a1k5OSG-ylio9a-eIY2H-5" edge="1">
          <mxGeometry relative="1" as="geometry" />
        </mxCell>
        <mxCell id="a1k5OSG-ylio9a-eIY2H-7" value="n" style="edgeLabel;html=1;align=center;verticalAlign=middle;resizable=0;points=[];fontSize=11;fontFamily=Helvetica;fontColor=default;fontStyle=1" parent="a1k5OSG-ylio9a-eIY2H-6" vertex="1" connectable="0">
          <mxGeometry x="-0.6963" relative="1" as="geometry">
            <mxPoint as="offset" />
          </mxGeometry>
        </mxCell>
        <mxCell id="a1k5OSG-ylio9a-eIY2H-13" style="edgeStyle=orthogonalEdgeStyle;rounded=0;orthogonalLoop=1;jettySize=auto;html=1;endArrow=none;endFill=0;strokeWidth=2;" parent="1" source="a1k5OSG-ylio9a-eIY2H-8" target="vwh4TKMZ7woZxt2ZBBR1-2" edge="1">
          <mxGeometry relative="1" as="geometry" />
        </mxCell>
        <mxCell id="a1k5OSG-ylio9a-eIY2H-14" value="1" style="edgeLabel;html=1;align=center;verticalAlign=middle;resizable=0;points=[];fontSize=11;fontFamily=Helvetica;fontColor=default;" parent="a1k5OSG-ylio9a-eIY2H-13" vertex="1" connectable="0">
          <mxGeometry x="-0.7658" y="1" relative="1" as="geometry">
            <mxPoint as="offset" />
          </mxGeometry>
        </mxCell>
        <mxCell id="a1k5OSG-ylio9a-eIY2H-8" value="&lt;span&gt;&lt;font style=&quot;font-size: 11px;&quot;&gt;has&lt;/font&gt;&lt;/span&gt;" style="rhombus;whiteSpace=wrap;html=1;rounded=1;strokeColor=#b85450;strokeWidth=2;align=center;verticalAlign=middle;fontFamily=Helvetica;fontSize=12;fontColor=default;fillColor=#f8cecc;fontStyle=1" parent="1" vertex="1">
          <mxGeometry x="2460" y="1130" width="80" height="80" as="geometry" />
        </mxCell>
        <mxCell id="a1k5OSG-ylio9a-eIY2H-9" value="&lt;span style=&quot;font-size: 16px;&quot;&gt;&lt;u&gt;sh_id&lt;/u&gt;&lt;/span&gt;" style="rounded=1;whiteSpace=wrap;html=1;arcSize=60;strokeColor=#82b366;strokeWidth=2;align=center;verticalAlign=middle;fontFamily=Helvetica;fontSize=12;fillColor=#d5e8d4;fontStyle=1" parent="1" vertex="1">
          <mxGeometry x="2070" y="980" width="120" height="60" as="geometry" />
        </mxCell>
        <mxCell id="a1k5OSG-ylio9a-eIY2H-10" value="&lt;span style=&quot;font-size: 16px;&quot;&gt;sh_search&lt;/span&gt;" style="rounded=1;whiteSpace=wrap;html=1;arcSize=60;strokeColor=#82b366;strokeWidth=2;align=center;verticalAlign=middle;fontFamily=Helvetica;fontSize=12;fillColor=#d5e8d4;fontStyle=1" parent="1" vertex="1">
          <mxGeometry x="2210" y="980" width="120" height="60" as="geometry" />
        </mxCell>
        <mxCell id="a1k5OSG-ylio9a-eIY2H-11" value="&lt;span style=&quot;font-size: 16px;&quot;&gt;s_date&lt;/span&gt;" style="rounded=1;whiteSpace=wrap;html=1;arcSize=60;strokeColor=#82b366;strokeWidth=2;align=center;verticalAlign=middle;fontFamily=Helvetica;fontSize=12;fillColor=#d5e8d4;fontStyle=1" parent="1" vertex="1">
          <mxGeometry x="2350" y="980" width="120" height="60" as="geometry" />
        </mxCell>
        <mxCell id="1RA1Z_lXGUCn_M7CqP0G-2" style="edgeStyle=orthogonalEdgeStyle;rounded=0;orthogonalLoop=1;jettySize=auto;html=1;strokeWidth=2;endArrow=none;endFill=0;" edge="1" parent="1" source="1RA1Z_lXGUCn_M7CqP0G-1" target="vwh4TKMZ7woZxt2ZBBR1-190">
          <mxGeometry relative="1" as="geometry" />
        </mxCell>
        <mxCell id="1RA1Z_lXGUCn_M7CqP0G-1" value="added_date" style="rounded=1;whiteSpace=wrap;html=1;arcSize=60;strokeColor=#82b366;strokeWidth=2;align=center;verticalAlign=middle;fontFamily=Helvetica;fontSize=12;fontColor=default;fillColor=#d5e8d4;fontStyle=1" vertex="1" parent="1">
          <mxGeometry x="2620" y="1640" width="120" height="60" as="geometry" />
        </mxCell>
        <mxCell id="1RA1Z_lXGUCn_M7CqP0G-5" style="edgeStyle=orthogonalEdgeStyle;rounded=0;orthogonalLoop=1;jettySize=auto;html=1;endArrow=none;endFill=0;strokeWidth=2;" edge="1" parent="1" source="1RA1Z_lXGUCn_M7CqP0G-3" target="vwh4TKMZ7woZxt2ZBBR1-189">
          <mxGeometry relative="1" as="geometry" />
        </mxCell>
        <mxCell id="1RA1Z_lXGUCn_M7CqP0G-3" value="added_date" style="rounded=1;whiteSpace=wrap;html=1;arcSize=60;strokeColor=#82b366;strokeWidth=2;align=center;verticalAlign=middle;fontFamily=Helvetica;fontSize=12;fontColor=default;fillColor=#d5e8d4;fontStyle=1" vertex="1" parent="1">
          <mxGeometry x="2620" y="1560" width="120" height="60" as="geometry" />
        </mxCell>
        <mxCell id="1RA1Z_lXGUCn_M7CqP0G-6" style="edgeStyle=orthogonalEdgeStyle;shape=connector;rounded=0;orthogonalLoop=1;jettySize=auto;html=1;labelBackgroundColor=default;strokeColor=default;strokeWidth=2;align=center;verticalAlign=middle;fontFamily=Helvetica;fontSize=11;fontColor=default;endArrow=none;endFill=0;" edge="1" parent="1" source="1RA1Z_lXGUCn_M7CqP0G-4" target="vwh4TKMZ7woZxt2ZBBR1-188">
          <mxGeometry relative="1" as="geometry" />
        </mxCell>
        <mxCell id="1RA1Z_lXGUCn_M7CqP0G-4" value="added_date" style="rounded=1;whiteSpace=wrap;html=1;arcSize=60;strokeColor=#82b366;strokeWidth=2;align=center;verticalAlign=middle;fontFamily=Helvetica;fontSize=12;fontColor=default;fillColor=#d5e8d4;fontStyle=1" vertex="1" parent="1">
          <mxGeometry x="2620" y="1480" width="120" height="60" as="geometry" />
        </mxCell>
      </root>
    </mxGraphModel>
  </diagram>
</mxfile>
